<?xml version="1.0" encoding="UTF-8" standalone="no"?>
<!-- Created with Inkscape (http://www.inkscape.org/) -->

<svg
   inkscape:version="1.2 (dc2aeda, 2022-05-15)"
   height="139.90446mm"
   width="60.246143mm"
   viewBox="0 0 60.246142 139.90447"
   version="1.1"
   id="svg5"
   xml:space="preserve"
   sodipodi:docname="cholera_2.svg"
   xmlns:inkscape="http://www.inkscape.org/namespaces/inkscape"
   xmlns:sodipodi="http://sodipodi.sourceforge.net/DTD/sodipodi-0.dtd"
   xmlns="http://www.w3.org/2000/svg"
   xmlns:svg="http://www.w3.org/2000/svg"><sodipodi:namedview
     id="namedview7"
     pagecolor="#ffffff"
     bordercolor="#cccccc"
     borderopacity="1"
     inkscape:showpageshadow="0"
     inkscape:pageopacity="1"
     inkscape:pagecheckerboard="0"
     inkscape:deskcolor="#d1d1d1"
     inkscape:document-units="mm"
     showgrid="false"
     inkscape:zoom="0.46696304"
     inkscape:cx="729.17977"
     inkscape:cy="125.27758"
     inkscape:window-width="1721"
     inkscape:window-height="889"
     inkscape:window-x="121"
     inkscape:window-y="25"
     inkscape:window-maximized="0"
     inkscape:current-layer="layer1" /><defs
     id="defs2"><inkscape:path-effect
       effect="rough_hatches"
       id="path-effect520"
       is_visible="true"
       lpeversion="1.2"
       direction="130.62848,53.980749 , 17.010752,0"
       dist_rdm="0;1"
       growth="0"
       do_bend="false"
       bender="130.62848,58.980749 , 5,0"
       bottom_edge_variation="0;1"
       top_edge_variation="4.9893276;1"
       bottom_tgt_variation="0;1"
       top_tgt_variation="0;1"
       scale_bf="1"
       scale_bb="0"
       scale_tf="1"
       scale_tb="1"
       top_smth_variation="0;1"
       bottom_smth_variation="0;1"
       fat_output="true"
       stroke_width_top="1"
       stroke_width_bottom="1"
       front_thickness="1"
       back_thickness="0.25" /><inkscape:path-effect
       effect="interpolate_points"
       id="path-effect518"
       is_visible="true"
       lpeversion="1"
       interpolator_type="SpiroInterpolator" /><inkscape:path-effect
       effect="rough_hatches"
       id="path-effect516"
       is_visible="true"
       lpeversion="1.2"
       direction="130.62848,53.980749 , 17.010752,0"
       dist_rdm="3;504835873"
       growth="0"
       do_bend="true"
       bender="130.62848,58.980749 , 5,0"
       bottom_edge_variation="1;1"
       top_edge_variation="1;1"
       bottom_tgt_variation="0;1"
       top_tgt_variation="0;1"
       scale_bf="1"
       scale_bb="1"
       scale_tf="1"
       scale_tb="1"
       top_smth_variation="0;1"
       bottom_smth_variation="0;1"
       fat_output="true"
       stroke_width_top="1"
       stroke_width_bottom="1"
       front_thickness="1"
       back_thickness="0.25" /><inkscape:path-effect
       effect="bend_path"
       id="path-effect514"
       is_visible="true"
       lpeversion="1"
       bendpath="M 96.606976,58.980749 H 165.09492"
       prop_scale="1.03"
       scale_y_rel="false"
       vertical="false"
       hide_knot="false"
       bendpath-nodetypes="cc" /><filter
       inkscape:label="Warm Inside"
       inkscape:menu="Morphology"
       inkscape:menu-tooltip="Blurred colorized contour, filled inside"
       style="color-interpolation-filters:sRGB"
       id="filter22482"
       x="-0.058318548"
       y="-0.064284734"
       width="1.1325414"
       height="1.1439507"><feColorMatrix
         values="1 0 0 0 0 0 1 0 0 0 0 0 1 0 0 0 0 0 1 0 "
         result="fbSourceGraphic"
         id="feColorMatrix22466" /><feGaussianBlur
         stdDeviation="3"
         result="result1"
         id="feGaussianBlur22468" /><feOffset
         dx="2"
         dy="2"
         result="result6"
         id="feOffset22470" /><feComposite
         operator="in"
         result="result2"
         in="result6"
         in2="result1"
         id="feComposite22472" /><feColorMatrix
         values="110"
         result="result3"
         type="hueRotate"
         id="feColorMatrix22474" /><feBlend
         mode="screen"
         in="result2"
         in2="result3"
         result="result4"
         id="feBlend22476" /><feConvolveMatrix
         order="3 3"
         kernelMatrix="-2 0 2 0 4 0 2 0 2"
         divisor="2"
         bias="0"
         targetX="0"
         in="result4"
         result="result5"
         id="feConvolveMatrix22478" /><feComposite
         operator="atop"
         in="result2"
         in2="result5"
         id="feComposite22480" /></filter><filter
       inkscape:label="Warm Inside"
       inkscape:menu="Morphology"
       inkscape:menu-tooltip="Blurred colorized contour, filled inside"
       style="color-interpolation-filters:sRGB"
       id="filter22903"
       x="-0.060606532"
       y="-0.061557446"
       width="1.1377393"
       height="1.1399435"><feColorMatrix
         values="1 0 0 0 0 0 1 0 0 0 0 0 1 0 0 0 0 0 1 0 "
         result="fbSourceGraphic"
         id="feColorMatrix22887" /><feGaussianBlur
         stdDeviation="3"
         result="result1"
         id="feGaussianBlur22889" /><feOffset
         dx="2"
         dy="2"
         result="result6"
         id="feOffset22891" /><feComposite
         operator="in"
         result="result2"
         in="result6"
         in2="result1"
         id="feComposite22893" /><feColorMatrix
         values="110"
         result="result3"
         type="hueRotate"
         id="feColorMatrix22895" /><feBlend
         mode="screen"
         in="result2"
         in2="result3"
         result="result4"
         id="feBlend22897" /><feConvolveMatrix
         order="3 3"
         kernelMatrix="-2 0 2 0 4 0 2 0 2"
         divisor="2"
         bias="0"
         targetX="0"
         in="result4"
         result="result5"
         id="feConvolveMatrix22899" /><feComposite
         operator="atop"
         in="result2"
         in2="result5"
         id="feComposite22901" /></filter><filter
       inkscape:collect="always"
       style="color-interpolation-filters:sRGB"
       id="filter22917"
       x="-0.23371805"
       y="-0.046840437"
       width="1.5001412"
       height="1.0821053"><feGaussianBlur
         inkscape:collect="always"
         stdDeviation="0.22874707"
         id="feGaussianBlur22919" /></filter><filter
       inkscape:label="Warm Inside"
       inkscape:menu="Morphology"
       inkscape:menu-tooltip="Blurred colorized contour, filled inside"
       style="color-interpolation-filters:sRGB"
       id="filter22946"
       x="-0.16815253"
       y="-0.059496217"
       width="1.3822737"
       height="1.1352208"><feColorMatrix
         values="1 0 0 0 0 0 1 0 0 0 0 0 1 0 0 0 0 0 1 0 "
         result="fbSourceGraphic"
         id="feColorMatrix22930" /><feGaussianBlur
         stdDeviation="3"
         result="result1"
         id="feGaussianBlur22932" /><feOffset
         dx="2"
         dy="2"
         result="result6"
         id="feOffset22934" /><feComposite
         operator="in"
         result="result2"
         in="result6"
         in2="result1"
         id="feComposite22936" /><feColorMatrix
         values="110"
         result="result3"
         type="hueRotate"
         id="feColorMatrix22938" /><feBlend
         mode="screen"
         in="result2"
         in2="result3"
         result="result4"
         id="feBlend22940" /><feConvolveMatrix
         order="3 3"
         kernelMatrix="-2 0 2 0 4 0 2 0 2"
         divisor="2"
         bias="0"
         targetX="0"
         in="result4"
         result="result5"
         id="feConvolveMatrix22942" /><feComposite
         operator="atop"
         in="result2"
         in2="result5"
         id="feComposite22944" /></filter></defs><g
     inkscape:label="Layer 1"
     inkscape:groupmode="layer"
     id="layer1"
     transform="translate(-15.661721,-148.04049)"><g
       id="g22958"
       inkscape:export-filename="cholera_2.png"
       inkscape:export-xdpi="17.838018"
       inkscape:export-ydpi="17.838018"><path
         style="mix-blend-mode:normal;fill:none;stroke:#6c6c6c;stroke-width:1.85208;stroke-linecap:butt;stroke-linejoin:miter;stroke-dasharray:none;stroke-opacity:1;filter:url(#filter22917)"
         d="m 62.000559,247.70177 c -2.61281,0.17188 5.60889,3.23236 3.925565,7.70547 -0.78199,1.7137 -1.00737,4.04976 -2.354345,7.42768 -0.803549,2.51556 2.913682,-0.51007 0.383625,9.8088 -0.585692,2.38875 -1.896081,4.6512 -3.304467,6.506"
         id="path22950"
         sodipodi:nodetypes="cccsc" /><path
         id="path1009"
         style="fill:#4d4d4d;stroke:#000000;stroke-width:0.264585px;stroke-linecap:butt;stroke-linejoin:miter;stroke-opacity:1;filter:url(#filter22946)"
         d="m 31.105183,155.37306 c -0.18419,0.004 -0.361647,0.0607 -0.626454,0.17571 -0.91931,-0.22565 -1.756505,-0.26208 -2.573607,0.44988 -1.048298,0.71749 -0.929794,1.8963 -1.426613,2.25227 -0.394064,0.15801 -0.217318,2.48127 -1.147559,2.80097 -0.578804,0.8011 -1.22653,0.559 -1.408534,1.14123 -0.423581,0.57669 -0.780493,1.04451 -0.354178,2.02575 -0.07214,0.28159 0.273212,2.14636 -0.05254,2.7495 -0.152489,1.22164 -0.687448,1.07517 -0.476478,1.417 0.03443,0.24163 0.269322,1.20573 0.526751,2.2669 0.356355,0.53611 1.429242,1.39265 1.229748,1.64798 0.27164,0.86443 0.191984,1.52488 0.01277,2.84704 -0.212612,1.09166 0.911668,1.51268 1.415595,1.71884 -0.0552,0.90094 0.613662,1.59196 0.518562,2.07022 0.427408,0.92875 0.453582,2.10167 0.697348,2.1846 -0.23994,1.04784 -0.437853,0.91396 0.149696,0.82924 0.708333,0.12315 1.705849,1.4898 1.441863,1.76586 0.255788,0.59428 0.138396,0.70076 0.938553,1.3452 0.243759,1.28343 0.46336,1.4792 0.577592,2.49438 0.227914,0.62373 1.302013,2.3023 1.713572,2.69708 0.06395,1.45231 -0.211988,2.26332 0.507829,3.17841 0.263986,1.64309 1.354702,2.71383 1.374924,3.95459 0.895261,0.89867 1.339662,2.92811 1.947433,4.47977 0.54,1.11202 0.506708,2.47473 0.88602,3.99209 0.407731,1.2999 2.397299,2.71325 2.563999,4.82005 0.104395,1.31004 1.292642,3.59882 1.929925,5.32774 0.36072,1.42515 1.17869,4.23541 2.00618,7.46312 1.37951,2.3219 2.195,5.08156 2.85633,8.5068 0.86356,2.24929 2.1978,6.02365 2.69845,7.60481 1.56807,2.29443 2.24807,4.03085 3.62485,5.09423 1.23741,0.87666 1.60415,1.39463 2.55242,1.68993 0.22792,0.0937 0.88538,0.30814 1.35488,0.0454 0.769,0.0996 0.68867,-0.0823 0.85975,-0.52231 0.4274,-0.58636 0.20497,-0.52744 0.10986,-1.02083 -0.35047,-0.173 0.13164,-0.27492 0.50839,-0.43653 0.18586,0.15535 0.38841,0.32983 0.62053,0.53598 0.26141,0.23214 0.51353,0.55736 0.80298,0.90803 0.32128,0.3892 0.63161,0.8549 1.0182,1.30866 0.76603,0.89915 1.55651,1.75088 2.32195,2.61193 0.22669,0.25498 0.46158,0.54986 0.74509,0.83686 0.48794,0.49399 0.81367,0.67025 1.09191,1.06149 -0.0632,-0.0889 -0.0426,0.0135 0.11524,0.2799 0.0644,0.10869 0.0932,0.16455 0.17201,0.26179 0.0197,0.0243 0.0421,0.0529 0.0929,0.0959 0.0508,0.043 0.13019,0.13421 0.35531,0.13439 0.007,1e-5 0.009,-0.0111 0.0161,-0.0123 0.0118,0.11962 0.0251,0.41114 0.005,0.7228 -0.0219,0.34325 -0.0884,0.71331 -0.11835,0.79746 -0.07,0.19681 -0.2042,0.4204 -0.36717,0.67705 -0.30986,0.48797 -0.63948,0.96241 -0.98431,1.42305 -0.37346,0.49885 -0.89538,0.98225 -1.33002,1.66672 -0.38845,0.61176 -0.60282,1.24374 -0.8524,1.7503 -0.0653,0.0539 -0.17451,0.16255 -0.23754,0.37521 -0.10797,0.36437 -0.12443,0.6725 -0.16325,0.89087 -0.0416,0.23428 -0.11828,0.51979 -0.1528,0.86927 -0.0307,0.31066 -0.003,0.55406 -0.003,0.72312 v 0.97507 0.1633 c -0.0135,0.10279 -0.0339,0.3941 0.16974,0.62304 0.0331,0.0372 0.0677,0.0178 0.10593,0.0432 0.0226,0.043 0.005,0.0819 0.0384,0.11912 0.0186,0.021 0.039,0.006 0.0596,0.0238 0.0627,0.11999 0.11913,0.17486 0.1624,0.21256 -0.0161,-0.022 0.005,0.0874 0.1398,0.31454 0.12171,0.20531 0.22193,0.26775 0.21664,0.2618 0.25197,0.28344 0.44308,0.44045 0.49964,0.54043 0.22155,0.39163 0.41124,0.77361 0.5146,1.14568 0.0704,0.25353 0.0456,0.67167 0.12597,1.21398 v 10e-4 c 0.0513,0.34614 0.13265,0.54226 0.13981,0.61477 0.0332,0.33593 -0.003,0.74788 -0.003,1.22957 0,0.26593 0.0126,0.41887 0.007,0.50197 -0.0345,0.0544 -0.0928,0.13207 -0.13359,0.31582 -0.0286,0.12847 -0.011,0.16609 -0.005,0.23765 -0.0397,0.0474 -0.0564,0.0286 -0.096,0.1179 -0.0786,0.17679 -0.063,0.22469 -0.0672,0.27863 -0.004,0.0539 -0.004,0.0957 -0.004,0.13662 3e-4,0.082 0.004,0.15987 0.008,0.23415 0.001,0.0243 0.002,0.0387 0.003,0.0613 -0.0351,0.0453 -0.0486,0.0246 -0.083,0.10193 -0.04,0.0901 -0.007,0.0915 -0.0161,0.16108 -0.0475,0.0485 -0.0784,0.0506 -0.12908,0.16458 -0.008,0.0176 0.003,0.0144 -0.003,0.0312 -0.007,0.004 -0.0201,-3.5e-4 -0.0268,0.004 -0.10115,0.0569 -0.10292,0.0922 -0.14602,0.14551 -0.062,0.01 -0.0629,-0.0284 -0.1432,0.0168 -0.27908,0.15698 -0.33369,0.32708 -0.29572,0.28434 -0.0964,0.10844 -0.19169,0.21724 -0.28808,0.32567 -0.3311,0.37244 -0.45243,0.50605 -0.48467,0.54138 -5.5e-4,6.2e-4 -0.003,10e-4 -0.003,0.002 -0.007,0.009 -0.0117,0.0133 -0.0169,0.019 -1.6e-4,1.8e-4 -0.003,0.004 -0.003,0.004 -0.002,0.002 -0.005,0.007 -0.007,0.01 0,0 0.0358,0.0422 0.0395,0.0467 -0.0399,0.0527 -0.1192,0.16935 -0.41519,0.54393 -0.2085,0.26386 -0.43834,0.51655 -0.68012,0.76379 -0.25004,0.2557 -0.54836,0.50535 -0.85495,0.80095 -0.12905,0.12443 -0.16569,0.18171 -0.12936,0.14901 -0.14669,0.13201 -0.36353,0.27505 -0.59764,0.50548 -0.26611,0.26191 -0.43184,0.50965 -0.57449,0.64719 -0.0453,0.0437 -0.194,0.1201 -0.40445,0.29769 -0.0629,0.0531 -0.0646,0.0685 -0.0918,0.10451 -0.0928,0.0307 -0.18268,0.0323 -0.25957,0.11876 -0.20399,0.22933 -0.18212,0.52107 -0.16861,0.62336 h 1.07723 c -0.009,0.1007 0.0151,0.17715 -0.0907,0.29674 -0.096,0.10795 -0.22576,0.13625 -0.32028,0.14996 0.0753,0.0252 0.11383,0.0855 0.31492,-0.0276 0.15655,-0.0881 0.22331,-0.19409 0.25702,-0.24241 0.0748,-0.057 0.23178,-0.13421 0.43892,-0.33393 0.27143,-0.26169 0.43834,-0.51243 0.58267,-0.65449 0.12865,-0.12661 0.32982,-0.26287 0.55951,-0.46958 0.1428,-0.12851 0.18456,-0.20094 0.15902,-0.17633 0.26511,-0.25561 0.57354,-0.51233 0.88065,-0.82637 0.26265,-0.26859 0.52216,-0.55269 0.76655,-0.86196 0.37502,-0.47459 0.50208,-0.62921 0.61685,-0.82638 0.009,-0.0158 0.023,-0.0453 0.0353,-0.0709 0.0761,-0.0851 0.0635,-0.0699 0.19235,-0.21478 0.0964,-0.10844 0.19282,-0.21595 0.28922,-0.32438 v -10e-4 c 0.0108,-0.0123 0.0133,-0.0158 0.0189,-0.0228 0.0395,0.001 0.0523,0.0215 0.11975,-0.0166 0.0694,-0.0391 0.06,-0.0596 0.10027,-0.0997 0.0279,-5e-4 0.0362,0.019 0.0652,0.0134 0.18604,-0.0366 0.29511,-0.15246 0.35107,-0.22113 0.11192,-0.13735 0.12903,-0.20352 0.17625,-0.30977 0.0401,-0.0903 0.006,-0.0911 0.015,-0.16077 0.0474,-0.0485 0.0785,-0.0508 0.12908,-0.16457 0.0458,-0.10316 0.0111,-0.10783 0.0172,-0.18364 0.0612,-0.0636 0.11289,-0.0714 0.15901,-0.22717 0.0449,-0.1517 0.0327,-0.18304 0.0342,-0.22811 0.002,-0.0451 0.001,-0.0815 0,-0.11888 -0.002,-0.0744 -0.006,-0.14855 -0.01,-0.21859 -0.002,-0.0298 -10e-4,-0.047 -0.002,-0.0734 0.049,-0.0627 0.0864,-0.0548 0.12174,-0.1741 0.0551,-0.18596 0.0327,-0.28651 0.0223,-0.36728 0.0395,-0.0645 0.11272,-0.17039 0.14404,-0.3819 0.0525,-0.35463 0.008,-0.61217 0.008,-0.75775 0,-0.3859 0.0479,-0.84746 -0.004,-1.3738 -0.0367,-0.37187 -0.13421,-0.59072 -0.14828,-0.68562 -0.0474,-0.32011 -0.002,-0.80711 -0.16353,-1.3881 -0.15384,-0.55375 -0.40116,-1.0297 -0.64256,-1.4564 -0.23622,-0.41757 -0.52387,-0.61123 -0.65752,-0.76155 -0.0391,-0.044 -0.0552,-0.0626 -0.07,-0.0795 -0.01,-0.0399 -0.0493,-0.14528 -0.14659,-0.30945 -0.0514,-0.0867 -0.0717,-0.0903 -0.10902,-0.12614 -0.0269,-0.10586 -0.0297,-0.20943 -0.10789,-0.2977 -0.0333,-0.0375 -0.0682,-0.0177 -0.10677,-0.0432 -0.008,-0.0147 -0.004,-0.0268 -0.0128,-0.041 v -0.91978 c 0,-0.26473 -0.016,-0.45967 -0.004,-0.58015 0.0199,-0.19995 0.0829,-0.449 0.13755,-0.75648 0.0507,-0.2853 0.0739,-0.48848 0.111,-0.64845 0.0422,-0.0422 0.0597,-0.0301 0.11016,-0.12709 v -0.001 c 0.33864,-0.65325 0.54842,-1.28145 0.83885,-1.73885 0.31924,-0.50275 0.8115,-0.96792 1.27353,-1.58508 0.36319,-0.48515 0.71091,-0.98746 1.03995,-1.50565 0.16376,-0.25791 0.36169,-0.55966 0.50049,-0.94997 0.13217,-0.37171 0.17088,-0.7709 0.19742,-1.18634 0.0266,-0.41542 0.0326,-0.78999 -0.0212,-1.1228 -0.0722,-0.44649 -0.27551,-0.70696 -0.36209,-0.86927 -0.0383,-0.0718 -0.079,-0.14599 -0.15478,-0.23414 -0.0757,-0.0882 -0.209,-0.21766 -0.43129,-0.24148 -0.034,-0.004 -0.048,0.0306 -0.081,0.0336 -0.41203,-0.55513 -0.81521,-0.804 -1.17749,-1.17079 -0.22322,-0.22596 -0.44481,-0.5029 -0.70018,-0.79014 -0.77704,-0.8741 -1.56252,-1.72005 -2.30585,-2.59256 -0.32249,-0.37853 -0.62943,-0.83912 -1.00549,-1.29468 -0.16594,-0.20103 -0.33881,-0.42445 -0.5372,-0.64592 0.16828,-0.035 0.32427,-0.14006 0.42733,-0.36219 -0.0404,0.11629 1.10397,-0.76344 1.4718,-1.56252 0.20933,-0.84581 -0.0158,-1.47731 0.57336,-2.03083 0.5624,-0.68276 0.85446,-1.6614 0.26691,-3.24609 0.33066,-0.51714 -1.16866,-1.60117 -1.61246,-3.40176 0.13883,-1.37632 -0.7144,-2.32715 -1.2145,-4.25103 0.0891,-1.40282 -0.87495,-3.47109 -1.20179,-4.8051 -0.40281,-2.12861 0.28847,-2.53873 -0.76146,-4.6952 -1.02752,-2.52128 -1.95066,-4.36516 -2.07199,-5.80082 -0.26563,-2.41082 -1.2843,-4.90086 -1.74887,-6.54142 -1.00895,-1.74263 -2.42177,-3.59176 -2.52616,-4.96175 -0.77338,-1.89295 -1.00244,-2.78885 -1.5009,-4.59923 -1.03518,-1.88736 -2.49508,-3.49618 -2.74758,-4.66692 -0.9849,-1.33216 -0.1,-3.8334 -1.12638,-4.66722 -0.35691,-1.01512 -1.12655,-2.43186 -1.75509,-3.52599 -0.61324,-0.72769 -1.11159,-1.75208 -1.78221,-2.91789 -0.73676,-0.44174 -0.0536,-2.58529 -0.80834,-3.23877 -0.604497,-0.85687 -1.00919,-0.44397 -1.801698,-1.5406 -0.178178,-0.45233 -0.379874,-1.90166 -0.598497,-3.47485 0.0164,-1.31024 -0.04745,-2.7217 -0.392876,-3.74045 -0.0071,-0.58099 0.230095,-1.83904 0.252504,-2.52456 -0.09455,-0.70519 -0.07422,-2.30129 -0.670516,-3.50694 -0.637834,-1.5444 -0.270028,-1.96912 -0.3378,-3.20858 -0.683197,-1.17799 -1.850775,-2.24904 -1.89942,-2.81591 -0.396253,-0.14263 -0.360732,-0.52267 -1.078357,-1.53774 -0.422489,-0.75437 -1.944673,-1.09859 -2.61202,-0.93566 -0.78055,-0.27168 -1.106352,-0.41449 -1.413338,-0.40858 z M 61.806,259.44074 c 2e-4,10e-4 -0.004,0.007 -0.015,0.0156 -0.003,10e-4 -0.009,0.007 -0.0124,0.01 0.0155,-0.0174 0.0271,-0.0274 0.0274,-0.0254 z m -0.30221,4.28437 c -0.001,0.004 0.0244,0.14039 0.0128,0.18364 -0.002,-0.0194 -0.0247,-0.0512 -0.0246,-0.0661 5.4e-4,-0.0969 0.0131,-0.12307 0.0118,-0.11752 z m 1.36899,9.5686 c -0.002,-0.002 0.0161,0.009 0.046,0.0274 -0.0246,-0.013 -0.0439,-0.0247 -0.046,-0.0274 z m 0.0743,0.041 c 0.0297,0.01 0.0915,0.0111 0.12794,0.0257 -0.0233,-0.002 -0.0314,0.011 -0.0545,0.004 -0.028,-0.009 -0.0517,-0.0192 -0.0734,-0.0292 z m -1.44751,0.28149 c 0.11399,0.13628 0.57353,0.68386 0.66374,0.78539 -0.0439,0.007 -0.10915,0.0156 -0.10874,0.0156 5.1e-4,10e-6 -0.24806,-0.0637 -0.2477,-0.0635 3.6e-4,2e-4 -0.25102,-0.26598 -0.25081,-0.2656 1.9e-4,3.9e-4 -0.0749,-0.28145 -0.0748,-0.28085 2e-5,5.9e-4 0.003,-0.12244 0.01,-0.16077 0.003,-0.017 0.006,-0.0171 0.009,-0.0302 z" /></g></g></svg>
