<?xml version="1.0" encoding="UTF-8" standalone="no"?>
<!-- Created with Inkscape (http://www.inkscape.org/) -->

<svg
   inkscape:version="1.2 (dc2aeda, 2022-05-15)"
   height="134.01738mm"
   width="142.3925mm"
   viewBox="0 0 142.3925 134.01738"
   version="1.1"
   id="svg5"
   xml:space="preserve"
   sodipodi:docname="cholera_1.svg"
   xmlns:inkscape="http://www.inkscape.org/namespaces/inkscape"
   xmlns:sodipodi="http://sodipodi.sourceforge.net/DTD/sodipodi-0.dtd"
   xmlns="http://www.w3.org/2000/svg"
   xmlns:svg="http://www.w3.org/2000/svg"><sodipodi:namedview
     id="namedview7"
     pagecolor="#ffffff"
     bordercolor="#cccccc"
     borderopacity="1"
     inkscape:showpageshadow="0"
     inkscape:pageopacity="1"
     inkscape:pagecheckerboard="0"
     inkscape:deskcolor="#d1d1d1"
     inkscape:document-units="mm"
     showgrid="false"
     inkscape:zoom="0.46696304"
     inkscape:cx="759.16073"
     inkscape:cy="673.50084"
     inkscape:window-width="1721"
     inkscape:window-height="889"
     inkscape:window-x="121"
     inkscape:window-y="25"
     inkscape:window-maximized="0"
     inkscape:current-layer="layer1" /><defs
     id="defs2"><inkscape:path-effect
       effect="rough_hatches"
       id="path-effect520"
       is_visible="true"
       lpeversion="1.2"
       direction="130.62848,53.980749 , 17.010752,0"
       dist_rdm="0;1"
       growth="0"
       do_bend="false"
       bender="130.62848,58.980749 , 5,0"
       bottom_edge_variation="0;1"
       top_edge_variation="4.9893276;1"
       bottom_tgt_variation="0;1"
       top_tgt_variation="0;1"
       scale_bf="1"
       scale_bb="0"
       scale_tf="1"
       scale_tb="1"
       top_smth_variation="0;1"
       bottom_smth_variation="0;1"
       fat_output="true"
       stroke_width_top="1"
       stroke_width_bottom="1"
       front_thickness="1"
       back_thickness="0.25" /><inkscape:path-effect
       effect="interpolate_points"
       id="path-effect518"
       is_visible="true"
       lpeversion="1"
       interpolator_type="SpiroInterpolator" /><inkscape:path-effect
       effect="rough_hatches"
       id="path-effect516"
       is_visible="true"
       lpeversion="1.2"
       direction="130.62848,53.980749 , 17.010752,0"
       dist_rdm="3;504835873"
       growth="0"
       do_bend="true"
       bender="130.62848,58.980749 , 5,0"
       bottom_edge_variation="1;1"
       top_edge_variation="1;1"
       bottom_tgt_variation="0;1"
       top_tgt_variation="0;1"
       scale_bf="1"
       scale_bb="1"
       scale_tf="1"
       scale_tb="1"
       top_smth_variation="0;1"
       bottom_smth_variation="0;1"
       fat_output="true"
       stroke_width_top="1"
       stroke_width_bottom="1"
       front_thickness="1"
       back_thickness="0.25" /><inkscape:path-effect
       effect="bend_path"
       id="path-effect514"
       is_visible="true"
       lpeversion="1"
       bendpath="M 96.606976,58.980749 H 165.09492"
       prop_scale="1.03"
       scale_y_rel="false"
       vertical="false"
       hide_knot="false"
       bendpath-nodetypes="cc" /><filter
       inkscape:label="Warm Inside"
       inkscape:menu="Morphology"
       inkscape:menu-tooltip="Blurred colorized contour, filled inside"
       style="color-interpolation-filters:sRGB"
       id="filter22482"
       x="-0.058318547"
       y="-0.064284736"
       width="1.1325414"
       height="1.1439507"><feColorMatrix
         values="1 0 0 0 0 0 1 0 0 0 0 0 1 0 0 0 0 0 1 0 "
         result="fbSourceGraphic"
         id="feColorMatrix22466" /><feGaussianBlur
         stdDeviation="3"
         result="result1"
         id="feGaussianBlur22468" /><feOffset
         dx="2"
         dy="2"
         result="result6"
         id="feOffset22470" /><feComposite
         operator="in"
         result="result2"
         in="result6"
         in2="result1"
         id="feComposite22472" /><feColorMatrix
         values="110"
         result="result3"
         type="hueRotate"
         id="feColorMatrix22474" /><feBlend
         mode="screen"
         in="result2"
         in2="result3"
         result="result4"
         id="feBlend22476" /><feConvolveMatrix
         order="3 3"
         kernelMatrix="-2 0 2 0 4 0 2 0 2"
         divisor="2"
         bias="0"
         targetX="0"
         in="result4"
         result="result5"
         id="feConvolveMatrix22478" /><feComposite
         operator="atop"
         in="result2"
         in2="result5"
         id="feComposite22480" /></filter><filter
       inkscape:collect="always"
       style="color-interpolation-filters:sRGB"
       id="filter22849"
       x="-0.032146361"
       y="-0.065418339"
       width="1.0552912"
       height="1.1270971"><feGaussianBlur
         inkscape:collect="always"
         stdDeviation="0.48849454"
         id="feGaussianBlur22851" /></filter><filter
       inkscape:label="Warm Inside"
       inkscape:menu="Morphology"
       inkscape:menu-tooltip="Blurred colorized contour, filled inside"
       style="color-interpolation-filters:sRGB"
       id="filter22903"
       x="-0.060606532"
       y="-0.061557446"
       width="1.1377393"
       height="1.1399435"><feColorMatrix
         values="1 0 0 0 0 0 1 0 0 0 0 0 1 0 0 0 0 0 1 0 "
         result="fbSourceGraphic"
         id="feColorMatrix22887" /><feGaussianBlur
         stdDeviation="3"
         result="result1"
         id="feGaussianBlur22889" /><feOffset
         dx="2"
         dy="2"
         result="result6"
         id="feOffset22891" /><feComposite
         operator="in"
         result="result2"
         in="result6"
         in2="result1"
         id="feComposite22893" /><feColorMatrix
         values="110"
         result="result3"
         type="hueRotate"
         id="feColorMatrix22895" /><feBlend
         mode="screen"
         in="result2"
         in2="result3"
         result="result4"
         id="feBlend22897" /><feConvolveMatrix
         order="3 3"
         kernelMatrix="-2 0 2 0 4 0 2 0 2"
         divisor="2"
         bias="0"
         targetX="0"
         in="result4"
         result="result5"
         id="feConvolveMatrix22899" /><feComposite
         operator="atop"
         in="result2"
         in2="result5"
         id="feComposite22901" /></filter><filter
       inkscape:label="Warm Inside"
       inkscape:menu="Morphology"
       inkscape:menu-tooltip="Blurred colorized contour, filled inside"
       style="color-interpolation-filters:sRGB"
       id="filter22946"
       x="-0.16815253"
       y="-0.059496216"
       width="1.3822737"
       height="1.1352208"><feColorMatrix
         values="1 0 0 0 0 0 1 0 0 0 0 0 1 0 0 0 0 0 1 0 "
         result="fbSourceGraphic"
         id="feColorMatrix22930" /><feGaussianBlur
         stdDeviation="3"
         result="result1"
         id="feGaussianBlur22932" /><feOffset
         dx="2"
         dy="2"
         result="result6"
         id="feOffset22934" /><feComposite
         operator="in"
         result="result2"
         in="result6"
         in2="result1"
         id="feComposite22936" /><feColorMatrix
         values="110"
         result="result3"
         type="hueRotate"
         id="feColorMatrix22938" /><feBlend
         mode="screen"
         in="result2"
         in2="result3"
         result="result4"
         id="feBlend22940" /><feConvolveMatrix
         order="3 3"
         kernelMatrix="-2 0 2 0 4 0 2 0 2"
         divisor="2"
         bias="0"
         targetX="0"
         in="result4"
         result="result5"
         id="feConvolveMatrix22942" /><feComposite
         operator="atop"
         in="result2"
         in2="result5"
         id="feComposite22944" /></filter></defs><g
     inkscape:label="Layer 1"
     inkscape:groupmode="layer"
     id="layer1"
     transform="translate(-7.7811094,-2.8306509)"><g
       id="g22924"
       inkscape:export-filename="cholera_1.png"
       inkscape:export-xdpi="17.838018"
       inkscape:export-ydpi="17.838018"><path
         style="mix-blend-mode:normal;fill:none;stroke:#6c6d6e;stroke-width:1.87854;stroke-linecap:butt;stroke-linejoin:miter;stroke-dasharray:none;stroke-opacity:1;filter:url(#filter22849)"
         d="m 66.674999,96.308332 c -6.920887,0.02484 -11.037422,0.973682 -17.958282,0.917052 -3.87697,0.09267 -4.115833,2.306788 -6.207968,4.343176 -2.092135,2.03639 -3.222052,4.42338 -4.957696,6.83651 -2.411154,2.28708 -1.453025,4.79527 -2.046981,7.51245 -2.373362,2.58527 -4.292462,4.42123 -6.410503,7.42155 -0.569871,2.84574 -3.14032,6.30242 -7.205446,4.69154 -2.003053,-0.11419 -4.221874,-0.45113 -6.013123,0.55691"
         id="path22484"
         sodipodi:nodetypes="czzzzzzz" /><path
         id="path950"
         style="fill:#4d4d4d;stroke:#000000;stroke-width:0.264583px;stroke-linecap:butt;stroke-linejoin:miter;stroke-opacity:1;filter:url(#filter22482)"
         d="m 131.62932,10.362112 c -0.45539,0.158007 -1.35852,1.296042 -2.80351,1.639724 -1.33857,0.812786 -2.92242,0.737741 -4.68288,1.856089 -1.36754,1.217943 -2.91479,3.531546 -5.09637,5.184777 -1.97242,2.561935 -4.64282,4.186337 -6.34759,6.388604 -1.95498,2.316008 -4.33289,4.499849 -5.62538,7.192739 -2.28997,2.53549 -3.37862,5.758288 -4.52415,6.706947 -0.75764,1.66492 -1.86208,2.210814 -2.569653,3.466265 -1.045343,1.348905 -0.443924,1.612537 -1.115643,2.042907 -0.701286,0.34798 -0.789137,1.170017 -1.097284,1.185388 -0.549235,0.767904 -1.503286,1.08098 -1.529138,1.368712 0.04033,0.718104 -0.565465,0.848917 -0.990522,1.417006 0.117889,0.782045 0.06584,0.753204 -0.696501,1.252433 -0.08889,0.01955 -0.155001,0.0262 -0.209007,0.02701 -9.83e-4,0.02563 0.0031,0.04217 -0.0026,0.07561 -0.517261,-0.193666 -0.698164,0.522624 -1.30036,1.346476 -0.92778,0.158622 -0.961305,0.927098 -0.777278,1.031616 -0.669752,0.881644 -1.01403,1.912106 -0.923302,2.536634 -0.08046,1.273833 -1.65029,1.061442 -1.946868,2.0267 0.09003,1.031105 -0.347144,2.864652 -1.331711,3.647679 -0.895764,1.642046 -1.132945,2.41013 -2.139495,3.160941 -1.038299,1.409892 -0.832276,2.772927 -1.274376,3.784296 -0.813838,1.205036 -2.170338,3.539321 -3.531364,4.844509 -1.369721,1.632148 -0.695246,2.884355 -2.089501,3.527266 -0.63046,0.725112 -2.710496,2.167214 -4.564253,2.520434 -1.572172,0.730829 -3.240994,1.780921 -4.229279,2.095641 -1.848837,0.745774 -1.926532,0.47028 -3.601128,1.742028 -1.103771,1.055017 -1.779684,0.599535 -2.801253,1.7541 -0.127289,0.266026 -1.104612,2.034397 -1.067064,2.804144 0.190858,0.360588 -0.421013,1.177235 -0.336953,1.127252 -0.579897,-0.08916 -0.794762,0.969138 -0.701302,2.031781 -0.10177,0.626258 0.08893,0.520816 0,1.4348 -0.151332,0.30869 0.281018,1.696037 0.271991,2.599865 -4.409504,0.317348 -9.778013,1.063884 -13.142845,1.355049 -1.150144,0.09947 -2.220636,0.406334 -3.251749,0.522326 -0.670815,0.0754 -0.837737,0.07135 -1.046163,0.07786 -0.0589,-0.01339 -0.156336,-0.08093 -0.19093,-0.08289 -0.13723,-0.0086 -0.220188,0.01105 -0.314922,0.03279 -0.04736,0.01105 -0.09281,0.02272 -0.145174,0.04188 -0.05236,0.01928 -0.09623,0.0074 -0.238099,0.145195 -0.01891,0.0183 -0.02407,0.116668 -0.05027,0.152503 -0.133245,0.05612 -0.231809,0.101071 -0.446257,0.181424 0.09493,-0.03561 1.71e-4,-0.01486 -0.19319,-0.06607 -0.09669,-0.02567 -0.216789,-0.05932 -0.383273,-0.05268 -0.166485,0.0061 -0.399971,0.08486 -0.562341,0.267512 -0.143541,0.161468 -0.197533,0.403853 -0.196579,0.550289 6.56e-4,0.09702 0.01438,0.137828 0.0257,0.190623 -0.0029,0.0025 -1.97e-4,-2.95e-4 -0.0033,0.0025 -0.07535,0.06754 -0.208965,0.166748 -0.340342,0.363793 -0.376911,0.565309 -0.619436,1.131281 -0.914827,1.546629 -0.190034,0.267205 -0.588591,0.533944 -0.936294,1.055442 -0.301783,0.45264 -0.379234,0.87855 -0.494272,1.09421 -0.268314,0.50304 -0.592467,1.00001 -0.910591,1.53679 -0.672971,1.13552 -0.879695,1.47703 -1.067346,1.78809 -0.03496,0.0565 -0.06914,0.10967 -0.102534,0.16458 -0.08836,0.14524 -0.164745,0.27495 -0.208158,0.34949 -0.01083,0.0187 -0.01909,0.0325 -0.02769,0.048 -0.0043,0.007 -0.0081,0.0133 -0.01835,0.0336 -0.0051,0.01 -0.03715,0.0883 -0.03728,0.0887 -1.2e-5,3e-5 0.03914,0.1061 0.05762,0.15631 -0.245081,0.459 -0.648157,0.93461 -0.944766,1.60191 -0.273751,0.61588 -0.335196,1.19681 -0.481281,1.60764 -0.06975,0.19614 -0.380126,0.52464 -0.491166,1.14918 -0.132801,0.74691 0.04872,1.28853 0,1.56252 -0.0201,0.11311 -0.272875,0.38519 -0.445126,0.96648 -0.09434,0.31837 -0.0736,0.54392 -0.06835,0.8537 0.0053,0.30979 0.02417,0.65911 0.04265,0.99793 0.01847,0.33883 0.0367,0.6681 0.04067,0.91631 0.0019,0.12408 1.04e-4,0.22808 -0.0043,0.29165 -0.0015,0.0212 -0.0049,0.0294 -0.0079,0.04 -0.0365,0.0775 -0.05615,0.11151 -0.07654,0.14742 -0.129594,-0.0327 -0.216256,-0.10034 -0.505852,0.009 -0.382927,0.14359 -0.73686,0.35222 -1.056897,0.59222 -0.219826,0.16486 -0.304782,0.34634 -0.359829,0.43114 -0.0092,0.0141 -0.0067,0.01 -0.01277,0.0174 -0.03341,-3.9e-4 -0.08493,-0.002 -0.172854,-0.0166 -0.15124,-0.0233 -0.379839,-0.0782 -0.671645,0.004 -0.567062,0.15947 -0.835268,0.23756 -1.058873,0.35426 -0.0559,0.0292 -0.112627,0.0602 -0.187824,0.1309 -0.0752,0.0707 -0.197177,0.21848 -0.214655,0.45623 -0.0025,0.0338 0.02045,0.0394 0.02259,0.0709 -0.0476,-0.0133 -0.08733,-0.0295 -0.177373,-0.0302 -0.130178,-0.001 -0.345369,0.0585 -0.488906,0.21986 -0.236725,0.26628 -0.216803,0.62326 -0.194318,0.77681 0.02246,0.15354 0.03417,0.23735 0.03417,0.17919 v 2.08198 c 0,0.44644 0.04807,0.74835 0.0161,0.89214 -0.175249,0.78853 -0.589172,1.05926 -1.244719,1.79668 -0.204768,0.23035 -0.316441,0.39722 -0.379038,0.44417 -0.211785,0.15881 -0.51788,0.28539 -0.866813,0.48165 -0.677075,0.38081 -1.222895,0.82848 -1.757067,1.00015 -0.09788,0.0314 -0.255555,0.0286 -0.480435,0.001 -0.224881,-0.0274 -0.510447,-0.0801 -0.847607,-0.0168 -0.637728,0.11962 -1.071854,0.44976 -1.405708,0.52488 -0.162376,0.0366 -0.437699,-0.0123 -0.817666,-0.0123 h -1.388764 -5.089877 v 1.22955 h 5.089877 1.388764 c 0.237047,0 0.589375,0.0876 1.032037,-0.0123 0.622797,-0.14011 1.047237,-0.45671 1.371822,-0.51756 0.119306,-0.0223 0.304875,-0.004 0.548781,0.0264 0.243907,0.0297 0.552789,0.0696 0.899858,-0.0419 0.792431,-0.25469 1.387934,-0.76856 1.944892,-1.08182 0.268081,-0.15078 0.622098,-0.28692 0.984306,-0.55854 0.300415,-0.22529 0.441668,-0.48125 0.545398,-0.59794 0.573753,-0.64541 1.26975,-1.18301 1.533091,-2.36792 0.117695,-0.52956 0.01581,-0.94254 0.01581,-1.19017 v -2.04607 c 0.07049,-0.0128 0.0732,0.0416 0.160145,-0.007 0.194647,-0.10955 0.338605,-0.20185 0.461226,-0.30723 0.122624,-0.10537 0.251505,-0.22041 0.318029,-0.48293 0.0039,-0.0152 -0.01222,-0.0251 -0.0096,-0.0406 0.142184,-0.0494 0.184113,-0.0725 0.507265,-0.1633 0.0075,-0.002 0.09462,-0.002 0.258151,0.0229 0.163528,0.0252 0.410749,0.0751 0.707798,-0.0362 0.289886,-0.10869 0.430023,-0.33642 0.509242,-0.45847 0.07922,-0.12207 0.121638,-0.16217 0.08332,-0.13343 0.253953,-0.19045 0.523837,-0.34745 0.795356,-0.44925 0.138872,-0.0521 -0.09116,-0.0123 0.278487,0.041 0.184829,0.0264 0.503666,-0.11433 0.637188,-0.2799 0.133523,-0.16552 0.211993,-0.33364 0.325655,-0.58935 0.0902,-0.20294 0.08526,-0.30998 0.09405,-0.43845 0.0087,-0.12847 0.0097,-0.26331 0.0074,-0.40954 -0.0047,-0.29243 -0.0242,-0.63051 -0.04265,-0.96903 -0.01845,-0.33852 -0.0361,-0.67706 -0.04067,-0.94615 -0.0039,-0.23463 0.02456,-0.4507 0.01751,-0.4537 0.05763,-0.15876 0.362435,-0.47057 0.474784,-1.10247 0.132801,-0.74692 -0.04872,-1.28728 0,-1.56125 0.02426,-0.1364 0.247937,-0.40846 0.434394,-0.93281 0.216241,-0.60812 0.281452,-1.1498 0.443998,-1.5155 0.200592,-0.45128 0.577949,-0.90667 0.905226,-1.52026 0.268461,-0.50331 0.438241,-0.83221 0.542286,-1.04465 0.05202,-0.10623 0.08712,-0.17789 0.117501,-0.2548 0.01277,-0.0324 0.02759,-0.0737 0.04378,-0.1525 0.216866,-0.36295 0.249993,-0.41532 0.671364,-1.1263 0.298895,-0.50433 0.635419,-1.01612 0.9394,-1.58604 0.239888,-0.44973 0.319163,-0.82023 0.431288,-0.9884 0.175853,-0.26376 0.559757,-0.52759 0.914828,-1.02686 0.399484,-0.561711 0.645801,-1.140798 0.936293,-1.576496 -4.86e-4,7.37e-4 0.04851,-0.05047 0.147435,-0.139153 0.09892,-0.08879 0.254544,-0.224775 0.366044,-0.475622 0.05758,-0.12955 0.0033,-0.142163 0.0085,-0.238923 0.151163,0.04998 0.305743,0.138368 0.601036,0.02763 0.36399,-0.136489 0.617968,-0.242742 0.801569,-0.32915 0.04762,-0.02247 0.08021,-0.06275 0.117501,-0.07823 0.278753,-3.56e-4 0.538944,-0.0025 1.276916,-0.08511 1.139551,-0.128187 2.201976,-0.431411 3.226894,-0.520103 3.476281,-0.300793 8.993022,-1.060752 13.36654,-1.366801 0.02063,0.06533 0.03663,0.137397 0.04067,0.227169 0.253547,0.346503 1.007341,1.36636 1.247826,2.187145 0.920348,1.028761 0.05083,2.481744 1.049553,2.503264 0.425713,0.77055 1.619752,0.3847 2.51627,0.38476 0.674779,0.30815 1.787285,-0.55776 3.101206,-0.700879 0.998451,-0.775531 1.823332,-0.166245 3.351451,-0.291668 1.30086,-0.971274 2.410971,-0.219728 4.028179,-0.814928 1.015918,-0.630004 1.460883,-1.752233 3.070138,-2.295179 0.936727,-0.01105 2.320169,-0.404099 3.771723,-1.349006 1.140284,-0.305202 2.400897,-1.896373 3.81889,-2.472465 0.761654,-0.873396 1.472571,-0.979871 2.02115,-1.837978 0.746542,-0.58874 2.279341,-1.32819 2.769056,-2.418441 1.08732,-1.197167 2.253333,-1.859837 2.386912,-3.179051 0.500537,-1.472109 0.952686,-2.304684 0.961432,-3.716298 0.808685,-1.005341 1.389933,-1.53705 1.498916,-2.698983 0.578039,-0.777435 1.710126,-2.62829 1.558511,-3.970798 0.114446,-0.881951 1.536251,-1.465896 1.322111,-2.768563 0.52906,-1.291357 0.95554,-2.803939 1.15575,-3.481833 0.33875,-1.701007 0.25733,-2.231932 0.97244,-3.891684 0.70058,-0.532183 2.08945,-2.479008 2.44849,-2.996682 1.02381,-1.456064 1.39159,-1.565292 2.22733,-2.940447 0.8774,-1.297549 2.28659,-1.141065 3.56821,-2.032115 1.57206,-0.440577 2.24988,-1.930895 3.38732,-3.654035 0.7284,-1.956955 3.11656,-3.144827 4.33604,-4.654197 1.4698,-1.902854 2.74389,-4.438762 4.85743,-6.513147 1.31589,-1.790956 2.80539,-4.003705 4.58148,-5.297885 1.42488,-1.570852 3.01433,-3.620098 4.25103,-4.796854 0.66259,-0.718718 1.66413,-1.60351 1.88783,-2.608118 0.32865,-0.320934 0.3699,-1.760246 0.56404,-1.735038 -0.23436,-0.470949 -0.0971,0.04679 0.25448,-0.328834 0.61789,-0.703964 0.62314,0.522002 0.65047,-0.529946 0.38701,-0.267445 0.94647,-1.435439 1.39864,-1.61558 1.01507,-0.559481 0.70798,-0.817723 1.43114,-1.545042 0.3968,-0.388564 0.75309,-1.56176 0.76456,-1.794774 0.0268,-0.921601 0.75213,-0.749577 1.01283,-1.614622 0.55257,-1.09314 0.1015,-1.357253 0.096,-1.593341 -0.3427,-0.806632 -0.29892,-0.641492 -0.40276,-1.457351 -0.49737,-0.799875 0.0573,-0.350192 0.024,-0.9398 0.21589,-0.825697 -0.46888,-1.76021 -0.88262,-1.800173 -0.27,-0.338762 -0.48929,-1.224145 -0.1384,-1.119626 -0.69659,-0.902549 -1.05402,0.109987 -1.32041,-0.712632 -0.14244,0.229326 -0.53881,-1.323095 -0.98234,-1.061804 -0.2148,0.299415 -0.63618,0.07084 -1.4653,-0.23288 0.15314,0.154319 -0.25804,-0.126202 -0.28329,-0.440988 -0.93434,-0.391637 -0.52777,-0.447099 -1.1309,-0.250359 -0.99561,0.512756 -1.77152,0.160042 -2.45187,-0.183639 z M 94.341692,50.090706 c 0.01409,-0.363976 -0.382616,0.0058 0,0 z"
         sodipodi:nodetypes="ccccccccccccccccccccccccccccccccccccccccccccscccssssscccccscssssscscccccsccccssscscscscscsccccsccccsccccsssssccscccccsccccsccsccssssssccssssccscscccccccccccccccccccccccccccccccccccccccccccccccccccccc" /></g></g></svg>
