<?xml version="1.0" encoding="UTF-8" standalone="no"?>
<!-- Created with Inkscape (http://www.inkscape.org/) -->

<svg
   inkscape:version="1.2 (dc2aeda, 2022-05-15)"
   height="135.7168mm"
   width="139.00034mm"
   viewBox="0 0 139.00033 135.7168"
   version="1.1"
   id="svg5"
   xml:space="preserve"
   sodipodi:docname="cholera_3.svg"
   xmlns:inkscape="http://www.inkscape.org/namespaces/inkscape"
   xmlns:sodipodi="http://sodipodi.sourceforge.net/DTD/sodipodi-0.dtd"
   xmlns="http://www.w3.org/2000/svg"
   xmlns:svg="http://www.w3.org/2000/svg"><sodipodi:namedview
     id="namedview7"
     pagecolor="#ffffff"
     bordercolor="#cccccc"
     borderopacity="1"
     inkscape:showpageshadow="0"
     inkscape:pageopacity="1"
     inkscape:pagecheckerboard="0"
     inkscape:deskcolor="#d1d1d1"
     inkscape:document-units="mm"
     showgrid="false"
     inkscape:zoom="0.46696304"
     inkscape:cx="626.3879"
     inkscape:cy="270.89938"
     inkscape:window-width="1721"
     inkscape:window-height="889"
     inkscape:window-x="121"
     inkscape:window-y="25"
     inkscape:window-maximized="0"
     inkscape:current-layer="layer1" /><defs
     id="defs2"><inkscape:path-effect
       effect="rough_hatches"
       id="path-effect520"
       is_visible="true"
       lpeversion="1.2"
       direction="130.62848,53.980749 , 17.010752,0"
       dist_rdm="0;1"
       growth="0"
       do_bend="false"
       bender="130.62848,58.980749 , 5,0"
       bottom_edge_variation="0;1"
       top_edge_variation="4.9893276;1"
       bottom_tgt_variation="0;1"
       top_tgt_variation="0;1"
       scale_bf="1"
       scale_bb="0"
       scale_tf="1"
       scale_tb="1"
       top_smth_variation="0;1"
       bottom_smth_variation="0;1"
       fat_output="true"
       stroke_width_top="1"
       stroke_width_bottom="1"
       front_thickness="1"
       back_thickness="0.25" /><inkscape:path-effect
       effect="interpolate_points"
       id="path-effect518"
       is_visible="true"
       lpeversion="1"
       interpolator_type="SpiroInterpolator" /><inkscape:path-effect
       effect="rough_hatches"
       id="path-effect516"
       is_visible="true"
       lpeversion="1.2"
       direction="130.62848,53.980749 , 17.010752,0"
       dist_rdm="3;504835873"
       growth="0"
       do_bend="true"
       bender="130.62848,58.980749 , 5,0"
       bottom_edge_variation="1;1"
       top_edge_variation="1;1"
       bottom_tgt_variation="0;1"
       top_tgt_variation="0;1"
       scale_bf="1"
       scale_bb="1"
       scale_tf="1"
       scale_tb="1"
       top_smth_variation="0;1"
       bottom_smth_variation="0;1"
       fat_output="true"
       stroke_width_top="1"
       stroke_width_bottom="1"
       front_thickness="1"
       back_thickness="0.25" /><inkscape:path-effect
       effect="bend_path"
       id="path-effect514"
       is_visible="true"
       lpeversion="1"
       bendpath="M 96.606976,58.980749 H 165.09492"
       prop_scale="1.03"
       scale_y_rel="false"
       vertical="false"
       hide_knot="false"
       bendpath-nodetypes="cc" /><filter
       inkscape:label="Warm Inside"
       inkscape:menu="Morphology"
       inkscape:menu-tooltip="Blurred colorized contour, filled inside"
       style="color-interpolation-filters:sRGB"
       id="filter22482"
       x="-0.058318548"
       y="-0.064284734"
       width="1.1325414"
       height="1.1439507"><feColorMatrix
         values="1 0 0 0 0 0 1 0 0 0 0 0 1 0 0 0 0 0 1 0 "
         result="fbSourceGraphic"
         id="feColorMatrix22466" /><feGaussianBlur
         stdDeviation="3"
         result="result1"
         id="feGaussianBlur22468" /><feOffset
         dx="2"
         dy="2"
         result="result6"
         id="feOffset22470" /><feComposite
         operator="in"
         result="result2"
         in="result6"
         in2="result1"
         id="feComposite22472" /><feColorMatrix
         values="110"
         result="result3"
         type="hueRotate"
         id="feColorMatrix22474" /><feBlend
         mode="screen"
         in="result2"
         in2="result3"
         result="result4"
         id="feBlend22476" /><feConvolveMatrix
         order="3 3"
         kernelMatrix="-2 0 2 0 4 0 2 0 2"
         divisor="2"
         bias="0"
         targetX="0"
         in="result4"
         result="result5"
         id="feConvolveMatrix22478" /><feComposite
         operator="atop"
         in="result2"
         in2="result5"
         id="feComposite22480" /></filter><filter
       inkscape:label="Warm Inside"
       inkscape:menu="Morphology"
       inkscape:menu-tooltip="Blurred colorized contour, filled inside"
       style="color-interpolation-filters:sRGB"
       id="filter22903"
       x="-0.060606531"
       y="-0.061557445"
       width="1.1377393"
       height="1.1399435"><feColorMatrix
         values="1 0 0 0 0 0 1 0 0 0 0 0 1 0 0 0 0 0 1 0 "
         result="fbSourceGraphic"
         id="feColorMatrix22887" /><feGaussianBlur
         stdDeviation="3"
         result="result1"
         id="feGaussianBlur22889" /><feOffset
         dx="2"
         dy="2"
         result="result6"
         id="feOffset22891" /><feComposite
         operator="in"
         result="result2"
         in="result6"
         in2="result1"
         id="feComposite22893" /><feColorMatrix
         values="110"
         result="result3"
         type="hueRotate"
         id="feColorMatrix22895" /><feBlend
         mode="screen"
         in="result2"
         in2="result3"
         result="result4"
         id="feBlend22897" /><feConvolveMatrix
         order="3 3"
         kernelMatrix="-2 0 2 0 4 0 2 0 2"
         divisor="2"
         bias="0"
         targetX="0"
         in="result4"
         result="result5"
         id="feConvolveMatrix22899" /><feComposite
         operator="atop"
         in="result2"
         in2="result5"
         id="feComposite22901" /></filter><filter
       inkscape:collect="always"
       style="color-interpolation-filters:sRGB"
       id="filter22917"
       x="-0.030620656"
       y="-0.036402136"
       width="1.0433007"
       height="1.0653031"><feGaussianBlur
         inkscape:collect="always"
         stdDeviation="0.22874707"
         id="feGaussianBlur22919" /></filter><filter
       inkscape:label="Warm Inside"
       inkscape:menu="Morphology"
       inkscape:menu-tooltip="Blurred colorized contour, filled inside"
       style="color-interpolation-filters:sRGB"
       id="filter22946"
       x="-0.16815253"
       y="-0.059496216"
       width="1.3822737"
       height="1.1352208"><feColorMatrix
         values="1 0 0 0 0 0 1 0 0 0 0 0 1 0 0 0 0 0 1 0 "
         result="fbSourceGraphic"
         id="feColorMatrix22930" /><feGaussianBlur
         stdDeviation="3"
         result="result1"
         id="feGaussianBlur22932" /><feOffset
         dx="2"
         dy="2"
         result="result6"
         id="feOffset22934" /><feComposite
         operator="in"
         result="result2"
         in="result6"
         in2="result1"
         id="feComposite22936" /><feColorMatrix
         values="110"
         result="result3"
         type="hueRotate"
         id="feColorMatrix22938" /><feBlend
         mode="screen"
         in="result2"
         in2="result3"
         result="result4"
         id="feBlend22940" /><feConvolveMatrix
         order="3 3"
         kernelMatrix="-2 0 2 0 4 0 2 0 2"
         divisor="2"
         bias="0"
         targetX="0"
         in="result4"
         result="result5"
         id="feConvolveMatrix22942" /><feComposite
         operator="atop"
         in="result2"
         in2="result5"
         id="feComposite22944" /></filter></defs><g
     inkscape:label="Layer 1"
     inkscape:groupmode="layer"
     id="layer1"
     transform="translate(-71.082316,-135.26667)"><g
       id="g22954"
       inkscape:export-filename="cholera_3.png"
       inkscape:export-xdpi="17.838018"
       inkscape:export-ydpi="17.838018"><path
         id="path865"
         style="fill:#4d4d4d;stroke:#000000;stroke-width:0.264583px;stroke-linecap:butt;stroke-linejoin:miter;stroke-opacity:1;filter:url(#filter22903)"
         d="m 193.84062,142.59544 c -0.2543,0.60647 -0.43963,1.49707 -1.50671,1.17389 -0.48322,0.96025 -1.20555,0.37835 -1.85106,1.19829 -0.87804,0.67164 -1.52446,2.32282 -1.76789,3.47459 -0.93834,1.44038 -1.13533,3.54298 -1.71965,5.08045 -0.51222,1.67512 -1.0195,4.22681 -1.7194,6.28629 -0.49002,1.52749 -1.59743,3.83309 -2.24928,6.31552 -0.57343,2.24899 -2.02505,2.75345 -3.17599,5.02373 -0.93607,2.35435 -2.00536,4.59468 -3.05838,6.26534 -0.87669,1.56061 -2.5213,5.57843 -3.47278,7.00246 -1.60289,1.3204 -2.64917,3.04073 -3.52314,4.04194 -1.15458,0.71441 -1.73601,2.36157 -3.17435,3.1148 -0.8785,1.06765 -2.03137,1.95429 -2.94478,2.35534 -1.13642,0.40246 -2.11878,1.53203 -3.131,1.34537 -0.76428,0.60528 -1.53627,-0.53108 -3.06074,0.63883 -1.10016,0.92249 -2.19984,1.96654 -3.67353,2.55639 -1.28738,0.0773 -1.8666,0.76472 -3.50393,0.77423 -1.59836,0.80576 -1.96686,0.90466 -3.49223,1.20756 -1.02084,0.62788 -1.76428,1.30436 -2.75339,1.8763 -0.89437,0.62092 -2.33637,1.09006 -3.7684,1.38971 -0.95145,1.03472 -1.53153,0.29562 -2.88107,1.10619 -1.0949,0.51524 -1.82291,0.27092 -2.55568,1.49244 -0.33911,0.62882 -1.27253,1.65331 -1.88127,2.41481 -0.10948,0.64224 -0.81172,2.81012 -0.9691,3.59761 0.24704,1.37254 0.0128,2.23637 0.27033,2.76325 0.11754,1.1765 -0.11533,0.86921 0.36449,2.20551 4.3e-4,0.0474 -0.007,0.10546 -0.0153,0.16324 -0.19766,0.006 -0.39645,0.0169 -0.59664,0.0379 -0.96255,0.1008 -1.84641,0.46029 -2.69132,0.56357 -0.58744,0.0718 -1.21672,-0.002 -1.8815,-0.002 h -4.60562 c -0.40869,0 -1.17365,-0.0928 -1.91852,0.012 -0.37244,0.0522 -0.74564,0.15244 -1.08904,0.36906 -0.3434,0.21664 -0.6684,0.57241 -0.85268,1.11307 -0.0979,0.28716 -0.0518,0.45966 -0.0309,0.58833 -0.009,0.012 0.009,-0.0164 -0.023,0.0182 -0.0757,0.0814 -0.22479,0.21281 -0.32935,0.5196 l -0.0328,0.0959 -0.0106,0.10525 c -0.35222,3.53997 -0.42586,5.58508 -0.36567,6.85675 0.0301,0.63584 0.0936,1.08272 0.18857,1.43232 0.095,0.34957 0.23937,0.60211 0.34881,0.74192 0.0232,0.0297 0.0257,0.0332 0.0403,0.0529 -0.002,0.0198 -8.3e-4,0.0108 -0.006,0.0444 -0.0523,0.35216 -0.35813,1.51794 -0.83839,3.25361 -2.84627,-0.15672 -4.81677,-0.20936 -5.98326,-0.005 -0.61552,0.10773 -1.05811,0.26417 -1.40246,0.60652 -0.34436,0.34237 -0.52287,0.97607 -0.48959,1.52854 0.0666,1.10496 0.56972,2.13669 1.07756,3.62649 0.50783,1.48978 1.05137,3.35169 1.28908,5.70416 0.0354,0.37126 -0.0722,0.94268 0,1.68455 0.0868,0.8916 0.17484,1.42716 0.25323,1.78076 0.0638,0.28797 0.10002,0.38394 0.11244,0.41031 -0.005,0.0257 -0.004,0.0214 -0.0178,0.0767 -0.053,0.21734 -0.16151,0.63173 -0.32936,1.37047 -0.0853,0.37556 -0.10775,0.7137 -0.14524,0.9677 -0.0375,0.254 -0.0816,0.39118 -0.12907,0.46082 -0.54844,0.80456 -0.7602,0.90161 -1.02532,0.92887 -0.26512,0.0273 -0.70207,-0.11994 -1.39708,0.008 -1.02599,0.18814 -1.52309,0.31421 -1.80256,0.41959 -0.0815,0.0307 -0.15683,0.11118 -0.22582,0.15602 -0.002,-5e-5 -5.5e-4,5e-5 -0.003,0 -0.23261,-0.005 -0.73063,-0.0171 -1.75033,-0.0171 h -8.443633 c -1.186732,0 -2.328167,0.18935 -3.401566,0.004 -1.373962,-0.23711 -3.782332,-1.4886 -5.282844,-2.22236 -0.400643,-0.19591 -0.783602,-0.34839 -1.126281,-0.54948 -0.157797,-0.0926 -0.397254,-0.43349 -0.825972,-0.59072 -0.242017,-0.0887 -0.432316,-0.0293 -0.557752,-0.004 -0.06164,0.0119 -0.105606,0.0162 -0.134695,0.0175 -0.0045,-0.008 -0.0022,-0.002 -0.008,-0.0147 -0.04943,-0.10524 -0.130399,-0.34427 -0.358638,-0.51169 -0.178097,-0.13057 -0.341823,-0.11318 -0.438989,-0.0977 -0.09717,0.0156 -0.151419,0.0275 -0.147812,0.0275 h -0.38347 c -0.09954,0 -0.606051,-0.0274 -1.104964,-0.0415 -0.249457,-0.006 -0.502863,-0.0108 -0.724072,-0.005 -0.221209,0.005 -0.392278,0.01 -0.563141,0.0595 -0.471137,0.13824 -0.827723,0.42721 -1.13003,0.55224 -0.0074,-4.3e-4 -0.01999,1.5e-4 -0.05294,-0.008 -0.0796,-0.0196 -0.256473,-0.0768 -0.465692,0.0767 -0.332779,0.2441 -0.44164,0.59839 -0.502001,0.68693 -0.06036,0.0886 -0.301879,0.24825 -0.468268,0.73645 -0.08905,0.26127 -0.07712,0.50041 -0.06652,0.64295 0.01059,0.14254 0.01874,0.22214 0.01874,0.21685 v 1.12611 c 0,0.49016 -0.07334,1.09982 0.0061,1.79898 0.08201,0.72183 0.288007,1.29226 0.401039,1.78972 0.320534,1.41065 0.457207,2.45904 1.260976,3.63816 0.190913,0.28008 0.290476,0.38887 0.291176,0.38178 -0.01037,0.0321 -0.02476,0.0721 -0.02482,0.0726 -7.9e-5,3.2e-4 -0.02199,0.14129 -0.02202,0.14158 -2.3e-5,2.9e-4 0.0044,0.19973 0.0045,0.2 3.3e-5,2.5e-4 0.05567,0.21695 0.05576,0.21718 9.2e-5,2.3e-4 0.09097,0.16063 0.09112,0.16083 1.53e-4,2e-4 0.08927,0.0896 0.08949,0.0897 2.14e-4,1.8e-4 0.04877,0.0334 0.06817,0.0429 0.155149,0.0758 0.156443,0.0363 0.177093,0.0351 0.02066,-0.001 0.03128,-0.004 0.04427,-0.005 0.05198,-0.005 0.134115,-0.0158 0.313428,-0.0158 v -0.32579 c -0.0059,0.0172 -0.0097,0.032 -0.01336,0.0402 -0.05306,0.11849 -0.05459,0.0966 -0.0506,0.0908 0.0056,-0.008 0.03937,-0.12512 0.06395,-0.17251 v -0.60653 c 0.0047,0.0186 0.05227,0.20539 0.05224,0.20515 -3.4e-5,-2.6e-4 0.0044,0.19755 0.0045,0.19726 1.5e-5,-1.9e-4 -0.007,0.0464 -0.01336,0.0873 0.03308,-0.0819 0.0619,-0.0966 0.07707,-0.20791 0.03631,-0.26633 -0.005,-0.55576 -0.09932,-0.83265 -0.16639,-0.4882 -0.407911,-0.64789 -0.468269,-0.73643 -0.660055,-0.9683 -0.703536,-1.62786 -1.042186,-3.11825 -0.14284,-0.62863 -0.315355,-1.13964 -0.36637,-1.58866 -0.04676,-0.4116 0.0061,-0.94346 0.0061,-1.57939 v -1.12606 c 0,-0.16107 -0.01352,-0.24034 -0.02038,-0.30103 0.01455,-0.0108 0.0936,-0.0943 0.27103,-0.35465 0.17467,-0.25623 0.229208,-0.36598 0.238233,-0.39106 0.06421,0.0205 0.150314,0.0645 0.318582,0.002 0.473892,-0.1738 0.830193,-0.46784 1.130733,-0.55601 0.01975,-0.005 0.197702,-0.0287 0.400102,-0.0337 0.202399,-0.005 0.448042,-0.001 0.69151,0.005 0.486937,0.0138 0.941015,0.0415 1.122534,0.0415 h 0.38347 c 0.102209,0 0.148408,-0.0169 0.19115,-0.0275 0.0076,0.0133 -0.01863,-0.0211 0.008,0.0354 0.05909,0.12566 0.167062,0.39453 0.424932,0.52062 0.246367,0.12047 0.451407,0.066 0.587035,0.0388 0.135628,-0.0273 0.208127,-0.0267 0.214339,-0.0244 0.126347,0.0464 0.335653,0.31594 0.709081,0.53505 0.408586,0.23976 0.809674,0.39719 1.176645,0.57665 1.477844,0.72265 3.858444,2.00509 5.463685,2.28214 1.213671,0.20946 2.391571,0.005 3.507679,0.005 h 8.443623 c 1.01504,0 1.5043,0.0108 1.73627,0.0169 0.11598,0.002 0.12458,0.0133 0.23191,-0.001 0.0134,-0.001 0.0297,-0.002 0.0611,-0.0133 0.0157,-0.005 0.0358,-0.0133 0.0647,-0.0285 0.0144,-0.008 0.0511,-0.0326 0.0513,-0.0327 1.6e-4,-1.4e-4 0.0709,-0.0672 0.071,-0.0674 6e-5,-7e-5 0.0225,-0.0344 0.045,-0.0687 0.20007,-0.0718 0.6556,-0.19505 1.63273,-0.37422 0.5547,-0.10178 0.87561,0.0486 1.34835,0 0.47275,-0.0487 0.97883,-0.40088 1.60252,-1.31583 0.2386,-0.35002 0.32272,-0.77436 0.37363,-1.11925 0.0509,-0.34489 0.0769,-0.64139 0.11947,-0.82887 0.16289,-0.71689 0.26245,-1.09104 0.3242,-1.34434 0.0309,-0.12659 0.0555,-0.22428 0.0724,-0.3622 0.0168,-0.13793 0.008,-0.33828 -0.0194,-0.4677 -0.0557,-0.25887 -0.0842,-0.2602 -0.14078,-0.51547 -0.0566,-0.25527 -0.13507,-0.71552 -0.21692,-1.55602 -0.0361,-0.37119 0.0724,-0.94612 0,-1.68971 l -9.1e-4,-10e-4 v -0.002 c -0.25704,-2.5438 -0.84853,-4.55651 -1.37575,-6.10315 -0.52722,-1.54664 -0.95832,-2.71266 -0.98456,-3.14813 -0.0131,-0.21773 -0.0279,-0.18962 0.0949,-0.31169 0.12278,-0.12207 0.45073,-0.28956 1.00119,-0.38591 1.10093,-0.19273 3.05742,-0.16535 6.17183,0.0145 l 0.31624,0.0182 0.12041,-0.42989 c 0.62059,-2.21564 0.894,-3.22586 0.99252,-3.88869 0.0493,-0.33141 0.0595,-0.66987 -0.0541,-0.96633 -0.11361,-0.29645 -0.23483,-0.36971 -0.27173,-0.41684 -0.0369,-0.0472 -0.0563,-0.0635 -0.1019,-0.23127 -0.0456,-0.16779 -0.0999,-0.48607 -0.12579,-1.03265 -0.0506,-1.06977 0.0154,-3.03794 0.34364,-6.39284 0.008,-0.0108 -0.0104,0.0194 0.0255,-0.0192 0.0757,-0.0814 0.2248,-0.21417 0.32936,-0.52096 0.10025,-0.29413 0.0529,-0.47614 0.0318,-0.60275 0.0704,-0.17673 0.17418,-0.32416 0.36848,-0.44674 0.21117,-0.13322 0.50127,-0.22304 0.81707,-0.26735 0.63159,-0.0886 1.34213,-0.005 1.83185,-0.005 h 4.60562 c 0.61458,0 1.26922,0.0831 1.95671,-10e-4 0.95813,-0.11716 1.83864,-0.4743 2.68077,-0.56254 0.0756,-0.008 0.1518,-0.0133 0.22792,-0.0182 -0.0605,0.32095 -0.0926,0.64093 -0.0412,0.91547 0.15956,0.66412 0.5738,0.3008 0.38324,-0.0773 0.44854,0.87374 0.16727,1.04477 0.3748,1.42029 -0.0517,0.0318 0.60337,1.53677 0.49521,2.0203 0.005,0.2048 -0.23409,1.39972 0.23471,2.29313 -0.10888,-0.0447 0.54861,1.74865 1.42004,2.19074 0.67601,0.50692 1.21662,-0.54623 1.61961,0.14776 1.13557,0.46623 1.40905,-0.16611 2.74122,-0.36495 0.64369,-0.52873 2.38815,0.65252 3.57445,-0.16941 0.96417,0.0609 2.33176,-1.15668 3.59013,-1.54916 1.62419,-0.7549 3.66534,-0.71117 5.67755,-1.489 2.01222,-0.68043 4.24703,-1.95563 6.24656,-2.76772 2.00225,-0.51564 5.2752,-1.2337 6.98234,-2.7983 2.08565,-0.61246 4.00846,-2.09115 5.69067,-3.14263 1.9406,-0.55109 3.53551,-2.17148 4.69371,-3.82065 0.83679,-1.77819 1.91288,-2.7899 3.22611,-3.69933 0.93833,-1.13409 1.83459,-3.38694 2.85271,-4.26327 1.06164,-1.9757 1.7502,-2.17663 3.0598,-3.61309 1.31185,-1.83836 1.51483,-5.38181 2.90284,-6.81241 1.26925,-1.50108 1.96955,-4.34803 3.1282,-5.91688 1.18402,-2.07904 1.55639,-4.9499 2.40951,-7.01551 1.25067,-2.26702 2.41775,-3.50249 2.78221,-6.00897 0.19809,-2.60691 1.12204,-3.486 1.67326,-6.31688 0.61331,-2.26829 0.97174,-6.09686 1.50483,-7.71346 0.57796,-2.58615 0.72817,-3.94589 1.15791,-5.43681 0.1931,-2.21242 -0.2376,-3.0458 -0.54675,-4.57529 0.0417,-1.6013 -0.91878,-3.34813 -0.68261,-4.29108 -0.22393,-0.88312 -0.24177,-0.42623 -0.62663,-0.7574 -0.62918,-0.96025 -0.1993,-1.00498 -0.9527,-0.56942 -0.31821,0.48611 -0.95436,-0.24942 -1.38817,-0.28866 -0.65502,-0.79732 -1.35033,-1.05985 -1.38115,-1.17423 -0.36264,-0.10114 -0.36396,-0.52345 -1.28416,-0.56667 z m -86.32101,111.40488 c 0.0561,0.0961 0.11791,0.19298 0.14266,0.21306 0.035,0.0284 0.0802,0.0809 -0.0213,-0.0221 -0.0127,-0.0133 -0.0294,-0.0295 -0.0532,-0.0625 -0.0119,-0.0164 -0.0409,-0.0662 -0.0408,-0.066 5e-5,8e-5 -0.0137,-0.0314 -0.0274,-0.0626 z" /><path
         style="mix-blend-mode:normal;fill:none;stroke:#6c6c6c;stroke-width:1.85208;stroke-linecap:butt;stroke-linejoin:miter;stroke-dasharray:none;stroke-opacity:1;filter:url(#filter22917)"
         d="m 130.41152,219.35579 c -2.61281,0.17188 -5.80963,-0.073 -7.69328,2.09637 -0.78199,1.7137 -0.60672,3.44879 -2.15402,4.82346 -1.37985,1.96812 0.21311,4.43362 -2.01938,5.79774 -1.33652,2.00582 -2.35271,2.58669 -4.46072,4.03524 -2.96481,-0.18727 -0.60736,5.47522 -0.0903,7.0677 0.33557,1.88674 -0.0672,3.84761 0.20719,5.77085 0.0214,1.53459 -0.0457,3.87018 -1.88034,4.29067 -2.77894,0.91319 -5.73083,0.98129 -8.58918,1.50455 -3.28384,2.38502 -8.021068,1.65547 -10.927848,-0.99031 -2.93424,-1.45062 -6.67815,-2.58886 -9.65535,-0.60693 -2.67441,1.835 2.17202,4.47707 0.18684,6.6763"
         id="path22915"
         sodipodi:nodetypes="cccccccccccc" /></g></g></svg>
