<?xml version="1.0" encoding="UTF-8" standalone="no"?>
<!-- Created with Inkscape (http://www.inkscape.org/) -->

<svg
   inkscape:version="1.2 (dc2aeda, 2022-05-15)"
   height="297mm"
   width="210mm"
   viewBox="0 0 210 297"
   version="1.1"
   id="svg5"
   xml:space="preserve"
   sodipodi:docname="cholera.svg"
   xmlns:inkscape="http://www.inkscape.org/namespaces/inkscape"
   xmlns:sodipodi="http://sodipodi.sourceforge.net/DTD/sodipodi-0.dtd"
   xmlns="http://www.w3.org/2000/svg"
   xmlns:svg="http://www.w3.org/2000/svg"><sodipodi:namedview
     id="namedview7"
     pagecolor="#ffffff"
     bordercolor="#cccccc"
     borderopacity="1"
     inkscape:showpageshadow="0"
     inkscape:pageopacity="1"
     inkscape:pagecheckerboard="0"
     inkscape:deskcolor="#d1d1d1"
     inkscape:document-units="mm"
     showgrid="false"
     inkscape:zoom="0.5"
     inkscape:cx="-114"
     inkscape:cy="583"
     inkscape:window-width="1721"
     inkscape:window-height="889"
     inkscape:window-x="121"
     inkscape:window-y="25"
     inkscape:window-maximized="0"
     inkscape:current-layer="layer1" /><defs
     id="defs2"><inkscape:path-effect
       effect="rough_hatches"
       id="path-effect520"
       is_visible="true"
       lpeversion="1.2"
       direction="130.62848,53.980749 , 17.010752,0"
       dist_rdm="0;1"
       growth="0"
       do_bend="false"
       bender="130.62848,58.980749 , 5,0"
       bottom_edge_variation="0;1"
       top_edge_variation="4.9893276;1"
       bottom_tgt_variation="0;1"
       top_tgt_variation="0;1"
       scale_bf="1"
       scale_bb="0"
       scale_tf="1"
       scale_tb="1"
       top_smth_variation="0;1"
       bottom_smth_variation="0;1"
       fat_output="true"
       stroke_width_top="1"
       stroke_width_bottom="1"
       front_thickness="1"
       back_thickness="0.25" /><inkscape:path-effect
       effect="interpolate_points"
       id="path-effect518"
       is_visible="true"
       lpeversion="1"
       interpolator_type="SpiroInterpolator" /><inkscape:path-effect
       effect="rough_hatches"
       id="path-effect516"
       is_visible="true"
       lpeversion="1.2"
       direction="130.62848,53.980749 , 17.010752,0"
       dist_rdm="3;504835873"
       growth="0"
       do_bend="true"
       bender="130.62848,58.980749 , 5,0"
       bottom_edge_variation="1;1"
       top_edge_variation="1;1"
       bottom_tgt_variation="0;1"
       top_tgt_variation="0;1"
       scale_bf="1"
       scale_bb="1"
       scale_tf="1"
       scale_tb="1"
       top_smth_variation="0;1"
       bottom_smth_variation="0;1"
       fat_output="true"
       stroke_width_top="1"
       stroke_width_bottom="1"
       front_thickness="1"
       back_thickness="0.25" /><inkscape:path-effect
       effect="bend_path"
       id="path-effect514"
       is_visible="true"
       lpeversion="1"
       bendpath="M 96.606976,58.980749 H 165.09492"
       prop_scale="1.03"
       scale_y_rel="false"
       vertical="false"
       hide_knot="false"
       bendpath-nodetypes="cc" /></defs><g
     inkscape:label="Layer 1"
     inkscape:groupmode="layer"
     id="layer1"><path
       id="path865"
       style="fill:#4d4d4d;stroke:#000000;stroke-width:0.264583px;stroke-linecap:butt;stroke-linejoin:miter;stroke-opacity:1"
       d="m 193.84062,142.59544 c -0.2543,0.60647 -0.43963,1.49707 -1.50671,1.17389 -0.48322,0.96025 -1.20555,0.37835 -1.85106,1.19829 -0.87804,0.67164 -1.52446,2.32282 -1.76789,3.47459 -0.93834,1.44038 -1.13533,3.54298 -1.71965,5.08045 -0.51222,1.67512 -1.0195,4.22681 -1.7194,6.28629 -0.49002,1.52749 -1.59743,3.83309 -2.24928,6.31552 -0.57343,2.24899 -2.02505,2.75345 -3.17599,5.02373 -0.93607,2.35435 -2.00536,4.59468 -3.05838,6.26534 -0.87669,1.56061 -2.5213,5.57843 -3.47278,7.00246 -1.60289,1.3204 -2.64917,3.04073 -3.52314,4.04194 -1.15458,0.71441 -1.73601,2.36157 -3.17435,3.1148 -0.8785,1.06765 -2.03137,1.95429 -2.94478,2.35534 -1.13642,0.40246 -2.11878,1.53203 -3.131,1.34537 -0.76428,0.60528 -1.53627,-0.53108 -3.06074,0.63883 -1.10016,0.92249 -2.19984,1.96654 -3.67353,2.55639 -1.28738,0.0773 -1.8666,0.76472 -3.50393,0.77423 -1.59836,0.80576 -1.96686,0.90466 -3.49223,1.20756 -1.02084,0.62788 -1.76428,1.30436 -2.75339,1.8763 -0.89437,0.62092 -2.33637,1.09006 -3.7684,1.38971 -0.95145,1.03472 -1.53153,0.29562 -2.88107,1.10619 -1.0949,0.51524 -1.82291,0.27092 -2.55568,1.49244 -0.33911,0.62882 -1.27253,1.65331 -1.88127,2.41481 -0.10948,0.64224 -0.81172,2.81012 -0.9691,3.59761 0.24704,1.37254 0.0128,2.23637 0.27033,2.76325 0.11754,1.1765 -0.11533,0.86921 0.36449,2.20551 4.3e-4,0.0474 -0.007,0.10546 -0.0153,0.16324 -0.19766,0.006 -0.39645,0.0169 -0.59664,0.0379 -0.96255,0.1008 -1.84641,0.46029 -2.69132,0.56357 -0.58744,0.0718 -1.21672,-0.002 -1.8815,-0.002 h -4.60562 c -0.40869,0 -1.17365,-0.0928 -1.91852,0.012 -0.37244,0.0522 -0.74564,0.15244 -1.08904,0.36906 -0.3434,0.21664 -0.6684,0.57241 -0.85268,1.11307 -0.0979,0.28716 -0.0518,0.45966 -0.0309,0.58833 -0.009,0.012 0.009,-0.0164 -0.023,0.0182 -0.0757,0.0814 -0.22479,0.21281 -0.32935,0.5196 l -0.0328,0.0959 -0.0106,0.10525 c -0.35222,3.53997 -0.42586,5.58508 -0.36567,6.85675 0.0301,0.63584 0.0936,1.08272 0.18857,1.43232 0.095,0.34957 0.23937,0.60211 0.34881,0.74192 0.0232,0.0297 0.0257,0.0332 0.0403,0.0529 -0.002,0.0198 -8.3e-4,0.0108 -0.006,0.0444 -0.0523,0.35216 -0.35813,1.51794 -0.83839,3.25361 -2.84627,-0.15672 -4.81677,-0.20936 -5.98326,-0.005 -0.61552,0.10773 -1.05811,0.26417 -1.40246,0.60652 -0.34436,0.34237 -0.52287,0.97607 -0.48959,1.52854 0.0666,1.10496 0.56972,2.13669 1.07756,3.62649 0.50783,1.48978 1.05137,3.35169 1.28908,5.70416 0.0354,0.37126 -0.0722,0.94268 0,1.68455 0.0868,0.8916 0.17484,1.42716 0.25323,1.78076 0.0638,0.28797 0.10002,0.38394 0.11244,0.41031 -0.005,0.0257 -0.004,0.0214 -0.0178,0.0767 -0.053,0.21734 -0.16151,0.63173 -0.32936,1.37047 -0.0853,0.37556 -0.10775,0.7137 -0.14524,0.9677 -0.0375,0.254 -0.0816,0.39118 -0.12907,0.46082 -0.54844,0.80456 -0.7602,0.90161 -1.02532,0.92887 -0.26512,0.0273 -0.70207,-0.11994 -1.39708,0.008 -1.02599,0.18814 -1.52309,0.31421 -1.80256,0.41959 -0.0815,0.0307 -0.15683,0.11118 -0.22582,0.15602 -0.002,-5e-5 -5.5e-4,5e-5 -0.003,0 -0.23261,-0.005 -0.73063,-0.0171 -1.75033,-0.0171 h -8.443633 c -1.186732,0 -2.328167,0.18935 -3.401566,0.004 -1.373962,-0.23711 -3.782332,-1.4886 -5.282844,-2.22236 -0.400643,-0.19591 -0.783602,-0.34839 -1.126281,-0.54948 -0.157797,-0.0926 -0.397254,-0.43349 -0.825972,-0.59072 -0.242017,-0.0887 -0.432316,-0.0293 -0.557752,-0.004 -0.06164,0.0119 -0.105606,0.0162 -0.134695,0.0175 -0.0045,-0.008 -0.0022,-0.002 -0.008,-0.0147 -0.04943,-0.10524 -0.130399,-0.34427 -0.358638,-0.51169 -0.178097,-0.13057 -0.341823,-0.11318 -0.438989,-0.0977 -0.09717,0.0156 -0.151419,0.0275 -0.147812,0.0275 h -0.38347 c -0.09954,0 -0.606051,-0.0274 -1.104964,-0.0415 -0.249457,-0.006 -0.502863,-0.0108 -0.724072,-0.005 -0.221209,0.005 -0.392278,0.01 -0.563141,0.0595 -0.471137,0.13824 -0.827723,0.42721 -1.13003,0.55224 -0.0074,-4.3e-4 -0.01999,1.5e-4 -0.05294,-0.008 -0.0796,-0.0196 -0.256473,-0.0768 -0.465692,0.0767 -0.332779,0.2441 -0.44164,0.59839 -0.502001,0.68693 -0.06036,0.0886 -0.301879,0.24825 -0.468268,0.73645 -0.08905,0.26127 -0.07712,0.50041 -0.06652,0.64295 0.01059,0.14254 0.01874,0.22214 0.01874,0.21685 v 1.12611 c 0,0.49016 -0.07334,1.09982 0.0061,1.79898 0.08201,0.72183 0.288007,1.29226 0.401039,1.78972 0.320534,1.41065 0.457207,2.45904 1.260976,3.63816 0.190913,0.28008 0.290476,0.38887 0.291176,0.38178 -0.01037,0.0321 -0.02476,0.0721 -0.02482,0.0726 -7.9e-5,3.2e-4 -0.02199,0.14129 -0.02202,0.14158 -2.3e-5,2.9e-4 0.0044,0.19973 0.0045,0.2 3.3e-5,2.5e-4 0.05567,0.21695 0.05576,0.21718 9.2e-5,2.3e-4 0.09097,0.16063 0.09112,0.16083 1.53e-4,2e-4 0.08927,0.0896 0.08949,0.0897 2.14e-4,1.8e-4 0.04877,0.0334 0.06817,0.0429 0.155149,0.0758 0.156443,0.0363 0.177093,0.0351 0.02066,-0.001 0.03128,-0.004 0.04427,-0.005 0.05198,-0.005 0.134115,-0.0158 0.313428,-0.0158 v -0.32579 c -0.0059,0.0172 -0.0097,0.032 -0.01336,0.0402 -0.05306,0.11849 -0.05459,0.0966 -0.0506,0.0908 0.0056,-0.008 0.03937,-0.12512 0.06395,-0.17251 v -0.60653 c 0.0047,0.0186 0.05227,0.20539 0.05224,0.20515 -3.4e-5,-2.6e-4 0.0044,0.19755 0.0045,0.19726 1.5e-5,-1.9e-4 -0.007,0.0464 -0.01336,0.0873 0.03308,-0.0819 0.0619,-0.0966 0.07707,-0.20791 0.03631,-0.26633 -0.005,-0.55576 -0.09932,-0.83265 -0.16639,-0.4882 -0.407911,-0.64789 -0.468269,-0.73643 -0.660055,-0.9683 -0.703536,-1.62786 -1.042186,-3.11825 -0.14284,-0.62863 -0.315355,-1.13964 -0.36637,-1.58866 -0.04676,-0.4116 0.0061,-0.94346 0.0061,-1.57939 v -1.12606 c 0,-0.16107 -0.01352,-0.24034 -0.02038,-0.30103 0.01455,-0.0108 0.0936,-0.0943 0.27103,-0.35465 0.17467,-0.25623 0.229208,-0.36598 0.238233,-0.39106 0.06421,0.0205 0.150314,0.0645 0.318582,0.002 0.473892,-0.1738 0.830193,-0.46784 1.130733,-0.55601 0.01975,-0.005 0.197702,-0.0287 0.400102,-0.0337 0.202399,-0.005 0.448042,-0.001 0.69151,0.005 0.486937,0.0138 0.941015,0.0415 1.122534,0.0415 h 0.38347 c 0.102209,0 0.148408,-0.0169 0.19115,-0.0275 0.0076,0.0133 -0.01863,-0.0211 0.008,0.0354 0.05909,0.12566 0.167062,0.39453 0.424932,0.52062 0.246367,0.12047 0.451407,0.066 0.587035,0.0388 0.135628,-0.0273 0.208127,-0.0267 0.214339,-0.0244 0.126347,0.0464 0.335653,0.31594 0.709081,0.53505 0.408586,0.23976 0.809674,0.39719 1.176645,0.57665 1.477844,0.72265 3.858444,2.00509 5.463685,2.28214 1.213671,0.20946 2.391571,0.005 3.507679,0.005 h 8.443623 c 1.01504,0 1.5043,0.0108 1.73627,0.0169 0.11598,0.002 0.12458,0.0133 0.23191,-0.001 0.0134,-0.001 0.0297,-0.002 0.0611,-0.0133 0.0157,-0.005 0.0358,-0.0133 0.0647,-0.0285 0.0144,-0.008 0.0511,-0.0326 0.0513,-0.0327 1.6e-4,-1.4e-4 0.0709,-0.0672 0.071,-0.0674 6e-5,-7e-5 0.0225,-0.0344 0.045,-0.0687 0.20007,-0.0718 0.6556,-0.19505 1.63273,-0.37422 0.5547,-0.10178 0.87561,0.0486 1.34835,0 0.47275,-0.0487 0.97883,-0.40088 1.60252,-1.31583 0.2386,-0.35002 0.32272,-0.77436 0.37363,-1.11925 0.0509,-0.34489 0.0769,-0.64139 0.11947,-0.82887 0.16289,-0.71689 0.26245,-1.09104 0.3242,-1.34434 0.0309,-0.12659 0.0555,-0.22428 0.0724,-0.3622 0.0168,-0.13793 0.008,-0.33828 -0.0194,-0.4677 -0.0557,-0.25887 -0.0842,-0.2602 -0.14078,-0.51547 -0.0566,-0.25527 -0.13507,-0.71552 -0.21692,-1.55602 -0.0361,-0.37119 0.0724,-0.94612 0,-1.68971 l -9.1e-4,-10e-4 v -0.002 c -0.25704,-2.5438 -0.84853,-4.55651 -1.37575,-6.10315 -0.52722,-1.54664 -0.95832,-2.71266 -0.98456,-3.14813 -0.0131,-0.21773 -0.0279,-0.18962 0.0949,-0.31169 0.12278,-0.12207 0.45073,-0.28956 1.00119,-0.38591 1.10093,-0.19273 3.05742,-0.16535 6.17183,0.0145 l 0.31624,0.0182 0.12041,-0.42989 c 0.62059,-2.21564 0.894,-3.22586 0.99252,-3.88869 0.0493,-0.33141 0.0595,-0.66987 -0.0541,-0.96633 -0.11361,-0.29645 -0.23483,-0.36971 -0.27173,-0.41684 -0.0369,-0.0472 -0.0563,-0.0635 -0.1019,-0.23127 -0.0456,-0.16779 -0.0999,-0.48607 -0.12579,-1.03265 -0.0506,-1.06977 0.0154,-3.03794 0.34364,-6.39284 0.008,-0.0108 -0.0104,0.0194 0.0255,-0.0192 0.0757,-0.0814 0.2248,-0.21417 0.32936,-0.52096 0.10025,-0.29413 0.0529,-0.47614 0.0318,-0.60275 0.0704,-0.17673 0.17418,-0.32416 0.36848,-0.44674 0.21117,-0.13322 0.50127,-0.22304 0.81707,-0.26735 0.63159,-0.0886 1.34213,-0.005 1.83185,-0.005 h 4.60562 c 0.61458,0 1.26922,0.0831 1.95671,-10e-4 0.95813,-0.11716 1.83864,-0.4743 2.68077,-0.56254 0.0756,-0.008 0.1518,-0.0133 0.22792,-0.0182 -0.0605,0.32095 -0.0926,0.64093 -0.0412,0.91547 0.15956,0.66412 0.5738,0.3008 0.38324,-0.0773 0.44854,0.87374 0.16727,1.04477 0.3748,1.42029 -0.0517,0.0318 0.60337,1.53677 0.49521,2.0203 0.005,0.2048 -0.23409,1.39972 0.23471,2.29313 -0.10888,-0.0447 0.54861,1.74865 1.42004,2.19074 0.67601,0.50692 1.21662,-0.54623 1.61961,0.14776 1.13557,0.46623 1.40905,-0.16611 2.74122,-0.36495 0.64369,-0.52873 2.38815,0.65252 3.57445,-0.16941 0.96417,0.0609 2.33176,-1.15668 3.59013,-1.54916 1.62419,-0.7549 3.66534,-0.71117 5.67755,-1.489 2.01222,-0.68043 4.24703,-1.95563 6.24656,-2.76772 2.00225,-0.51564 5.2752,-1.2337 6.98234,-2.7983 2.08565,-0.61246 4.00846,-2.09115 5.69067,-3.14263 1.9406,-0.55109 3.53551,-2.17148 4.69371,-3.82065 0.83679,-1.77819 1.91288,-2.7899 3.22611,-3.69933 0.93833,-1.13409 1.83459,-3.38694 2.85271,-4.26327 1.06164,-1.9757 1.7502,-2.17663 3.0598,-3.61309 1.31185,-1.83836 1.51483,-5.38181 2.90284,-6.81241 1.26925,-1.50108 1.96955,-4.34803 3.1282,-5.91688 1.18402,-2.07904 1.55639,-4.9499 2.40951,-7.01551 1.25067,-2.26702 2.41775,-3.50249 2.78221,-6.00897 0.19809,-2.60691 1.12204,-3.486 1.67326,-6.31688 0.61331,-2.26829 0.97174,-6.09686 1.50483,-7.71346 0.57796,-2.58615 0.72817,-3.94589 1.15791,-5.43681 0.1931,-2.21242 -0.2376,-3.0458 -0.54675,-4.57529 0.0417,-1.6013 -0.91878,-3.34813 -0.68261,-4.29108 -0.22393,-0.88312 -0.24177,-0.42623 -0.62663,-0.7574 -0.62918,-0.96025 -0.1993,-1.00498 -0.9527,-0.56942 -0.31821,0.48611 -0.95436,-0.24942 -1.38817,-0.28866 -0.65502,-0.79732 -1.35033,-1.05985 -1.38115,-1.17423 -0.36264,-0.10114 -0.36396,-0.52345 -1.28416,-0.56667 z m -86.32101,111.40488 c 0.0561,0.0961 0.11791,0.19298 0.14266,0.21306 0.035,0.0284 0.0802,0.0809 -0.0213,-0.0221 -0.0127,-0.0133 -0.0294,-0.0295 -0.0532,-0.0625 -0.0119,-0.0164 -0.0409,-0.0662 -0.0408,-0.066 5e-5,8e-5 -0.0137,-0.0314 -0.0274,-0.0626 z" /><path
       id="path950"
       style="fill:#4d4d4d;stroke:#000000;stroke-width:0.264583px;stroke-linecap:butt;stroke-linejoin:miter;stroke-opacity:1"
       d="m 131.62932,10.362112 c -0.45539,0.158007 -1.35852,1.296042 -2.80351,1.639724 -1.33857,0.812786 -2.92242,0.737741 -4.68288,1.856089 -1.36754,1.217943 -2.91479,3.531546 -5.09637,5.184777 -1.97242,2.561935 -4.64282,4.186337 -6.34759,6.388604 -1.95498,2.316008 -4.33289,4.499849 -5.62538,7.192739 -2.28997,2.53549 -3.37862,5.758288 -4.52415,6.706947 -0.75764,1.66492 -1.86208,2.210814 -2.569653,3.466265 -1.045343,1.348905 -0.443924,1.612537 -1.115643,2.042907 -0.701286,0.34798 -0.789137,1.170017 -1.097284,1.185388 -0.549235,0.767904 -1.503286,1.08098 -1.529138,1.368712 0.04033,0.718104 -0.565465,0.848917 -0.990522,1.417006 0.117889,0.782045 0.06584,0.753204 -0.696501,1.252433 -0.08889,0.01955 -0.155001,0.0262 -0.209007,0.02701 -9.83e-4,0.02563 0.0031,0.04217 -0.0026,0.07561 -0.517261,-0.193666 -0.698164,0.522624 -1.30036,1.346476 -0.92778,0.158622 -0.961305,0.927098 -0.777278,1.031616 -0.669752,0.881644 -1.01403,1.912106 -0.923302,2.536634 -0.08046,1.273833 -1.65029,1.061442 -1.946868,2.0267 0.09003,1.031105 -0.347144,2.864652 -1.331711,3.647679 -0.895764,1.642046 -1.132945,2.41013 -2.139495,3.160941 -1.038299,1.409892 -0.832276,2.772927 -1.274376,3.784296 -0.813838,1.205036 -2.170338,3.539321 -3.531364,4.844509 -1.369721,1.632148 -0.695246,2.884355 -2.089501,3.527266 -0.63046,0.725112 -2.710496,2.167214 -4.564253,2.520434 -1.572172,0.730829 -3.240994,1.780921 -4.229279,2.095641 -1.848837,0.745774 -1.926532,0.47028 -3.601128,1.742028 -1.103771,1.055017 -1.779684,0.599535 -2.801253,1.7541 -0.127289,0.266026 -1.104612,2.034397 -1.067064,2.804144 0.190858,0.360588 -0.421013,1.177235 -0.336953,1.127252 -0.579897,-0.08916 -0.794762,0.969138 -0.701302,2.031781 -0.10177,0.626258 0.08893,0.520816 0,1.4348 -0.151332,0.30869 0.281018,1.696037 0.271991,2.599865 -4.409504,0.317348 -9.778013,1.063884 -13.142845,1.355049 -1.150144,0.09947 -2.220636,0.406334 -3.251749,0.522326 -0.670815,0.0754 -0.837737,0.07135 -1.046163,0.07786 -0.0589,-0.01339 -0.156336,-0.08093 -0.19093,-0.08289 -0.13723,-0.0086 -0.220188,0.01105 -0.314922,0.03279 -0.04736,0.01105 -0.09281,0.02272 -0.145174,0.04188 -0.05236,0.01928 -0.09623,0.0074 -0.238099,0.145195 -0.01891,0.0183 -0.02407,0.116668 -0.05027,0.152503 -0.133245,0.05612 -0.231809,0.101071 -0.446257,0.181424 0.09493,-0.03561 1.71e-4,-0.01486 -0.19319,-0.06607 -0.09669,-0.02567 -0.216789,-0.05932 -0.383273,-0.05268 -0.166485,0.0061 -0.399971,0.08486 -0.562341,0.267512 -0.143541,0.161468 -0.197533,0.403853 -0.196579,0.550289 6.56e-4,0.09702 0.01438,0.137828 0.0257,0.190623 -0.0029,0.0025 -1.97e-4,-2.95e-4 -0.0033,0.0025 -0.07535,0.06754 -0.208965,0.166748 -0.340342,0.363793 -0.376911,0.565309 -0.619436,1.131281 -0.914827,1.546629 -0.190034,0.267205 -0.588591,0.533944 -0.936294,1.055442 -0.301783,0.45264 -0.379234,0.87855 -0.494272,1.09421 -0.268314,0.50304 -0.592467,1.00001 -0.910591,1.53679 -0.672971,1.13552 -0.879695,1.47703 -1.067346,1.78809 -0.03496,0.0565 -0.06914,0.10967 -0.102534,0.16458 -0.08836,0.14524 -0.164745,0.27495 -0.208158,0.34949 -0.01083,0.0187 -0.01909,0.0325 -0.02769,0.048 -0.0043,0.007 -0.0081,0.0133 -0.01835,0.0336 -0.0051,0.01 -0.03715,0.0883 -0.03728,0.0887 -1.2e-5,3e-5 0.03914,0.1061 0.05762,0.15631 -0.245081,0.459 -0.648157,0.93461 -0.944766,1.60191 -0.273751,0.61588 -0.335196,1.19681 -0.481281,1.60764 -0.06975,0.19614 -0.380126,0.52464 -0.491166,1.14918 -0.132801,0.74691 0.04872,1.28853 0,1.56252 -0.0201,0.11311 -0.272875,0.38519 -0.445126,0.96648 -0.09434,0.31837 -0.0736,0.54392 -0.06835,0.8537 0.0053,0.30979 0.02417,0.65911 0.04265,0.99793 0.01847,0.33883 0.0367,0.6681 0.04067,0.91631 0.0019,0.12408 1.04e-4,0.22808 -0.0043,0.29165 -0.0015,0.0212 -0.0049,0.0294 -0.0079,0.04 -0.0365,0.0775 -0.05615,0.11151 -0.07654,0.14742 -0.129594,-0.0327 -0.216256,-0.10034 -0.505852,0.009 -0.382927,0.14359 -0.73686,0.35222 -1.056897,0.59222 -0.219826,0.16486 -0.304782,0.34634 -0.359829,0.43114 -0.0092,0.0141 -0.0067,0.01 -0.01277,0.0174 -0.03341,-3.9e-4 -0.08493,-0.002 -0.172854,-0.0166 -0.15124,-0.0233 -0.379839,-0.0782 -0.671645,0.004 -0.567062,0.15947 -0.835268,0.23756 -1.058873,0.35426 -0.0559,0.0292 -0.112627,0.0602 -0.187824,0.1309 -0.0752,0.0707 -0.197177,0.21848 -0.214655,0.45623 -0.0025,0.0338 0.02045,0.0394 0.02259,0.0709 -0.0476,-0.0133 -0.08733,-0.0295 -0.177373,-0.0302 -0.130178,-0.001 -0.345369,0.0585 -0.488906,0.21986 -0.236725,0.26628 -0.216803,0.62326 -0.194318,0.77681 0.02246,0.15354 0.03417,0.23735 0.03417,0.17919 v 2.08198 c 0,0.44644 0.04807,0.74835 0.0161,0.89214 -0.175249,0.78853 -0.589172,1.05926 -1.244719,1.79668 -0.204768,0.23035 -0.316441,0.39722 -0.379038,0.44417 -0.211785,0.15881 -0.51788,0.28539 -0.866813,0.48165 -0.677075,0.38081 -1.222895,0.82848 -1.757067,1.00015 -0.09788,0.0314 -0.255555,0.0286 -0.480435,0.001 -0.224881,-0.0274 -0.510447,-0.0801 -0.847607,-0.0168 -0.637728,0.11962 -1.071854,0.44976 -1.405708,0.52488 -0.162376,0.0366 -0.437699,-0.0123 -0.817666,-0.0123 h -1.388764 -5.089877 v 1.22955 h 5.089877 1.388764 c 0.237047,0 0.589375,0.0876 1.032037,-0.0123 0.622797,-0.14011 1.047237,-0.45671 1.371822,-0.51756 0.119306,-0.0223 0.304875,-0.004 0.548781,0.0264 0.243907,0.0297 0.552789,0.0696 0.899858,-0.0419 0.792431,-0.25469 1.387934,-0.76856 1.944892,-1.08182 0.268081,-0.15078 0.622098,-0.28692 0.984306,-0.55854 0.300415,-0.22529 0.441668,-0.48125 0.545398,-0.59794 0.573753,-0.64541 1.26975,-1.18301 1.533091,-2.36792 0.117695,-0.52956 0.01581,-0.94254 0.01581,-1.19017 v -2.04607 c 0.07049,-0.0128 0.0732,0.0416 0.160145,-0.007 0.194647,-0.10955 0.338605,-0.20185 0.461226,-0.30723 0.122624,-0.10537 0.251505,-0.22041 0.318029,-0.48293 0.0039,-0.0152 -0.01222,-0.0251 -0.0096,-0.0406 0.142184,-0.0494 0.184113,-0.0725 0.507265,-0.1633 0.0075,-0.002 0.09462,-0.002 0.258151,0.0229 0.163528,0.0252 0.410749,0.0751 0.707798,-0.0362 0.289886,-0.10869 0.430023,-0.33642 0.509242,-0.45847 0.07922,-0.12207 0.121638,-0.16217 0.08332,-0.13343 0.253953,-0.19045 0.523837,-0.34745 0.795356,-0.44925 0.138872,-0.0521 -0.09116,-0.0123 0.278487,0.041 0.184829,0.0264 0.503666,-0.11433 0.637188,-0.2799 0.133523,-0.16552 0.211993,-0.33364 0.325655,-0.58935 0.0902,-0.20294 0.08526,-0.30998 0.09405,-0.43845 0.0087,-0.12847 0.0097,-0.26331 0.0074,-0.40954 -0.0047,-0.29243 -0.0242,-0.63051 -0.04265,-0.96903 -0.01845,-0.33852 -0.0361,-0.67706 -0.04067,-0.94615 -0.0039,-0.23463 0.02456,-0.4507 0.01751,-0.4537 0.05763,-0.15876 0.362435,-0.47057 0.474784,-1.10247 0.132801,-0.74692 -0.04872,-1.28728 0,-1.56125 0.02426,-0.1364 0.247937,-0.40846 0.434394,-0.93281 0.216241,-0.60812 0.281452,-1.1498 0.443998,-1.5155 0.200592,-0.45128 0.577949,-0.90667 0.905226,-1.52026 0.268461,-0.50331 0.438241,-0.83221 0.542286,-1.04465 0.05202,-0.10623 0.08712,-0.17789 0.117501,-0.2548 0.01277,-0.0324 0.02759,-0.0737 0.04378,-0.1525 0.216866,-0.36295 0.249993,-0.41532 0.671364,-1.1263 0.298895,-0.50433 0.635419,-1.01612 0.9394,-1.58604 0.239888,-0.44973 0.319163,-0.82023 0.431288,-0.9884 0.175853,-0.26376 0.559757,-0.52759 0.914828,-1.02686 0.399484,-0.561711 0.645801,-1.140798 0.936293,-1.576496 -4.86e-4,7.37e-4 0.04851,-0.05047 0.147435,-0.139153 0.09892,-0.08879 0.254544,-0.224775 0.366044,-0.475622 0.05758,-0.12955 0.0033,-0.142163 0.0085,-0.238923 0.151163,0.04998 0.305743,0.138368 0.601036,0.02763 0.36399,-0.136489 0.617968,-0.242742 0.801569,-0.32915 0.04762,-0.02247 0.08021,-0.06275 0.117501,-0.07823 0.278753,-3.56e-4 0.538944,-0.0025 1.276916,-0.08511 1.139551,-0.128187 2.201976,-0.431411 3.226894,-0.520103 3.476281,-0.300793 8.993022,-1.060752 13.36654,-1.366801 0.02063,0.06533 0.03663,0.137397 0.04067,0.227169 0.253547,0.346503 1.007341,1.36636 1.247826,2.187145 0.920348,1.028761 0.05083,2.481744 1.049553,2.503264 0.425713,0.77055 1.619752,0.3847 2.51627,0.38476 0.674779,0.30815 1.787285,-0.55776 3.101206,-0.700879 0.998451,-0.775531 1.823332,-0.166245 3.351451,-0.291668 1.30086,-0.971274 2.410971,-0.219728 4.028179,-0.814928 1.015918,-0.630004 1.460883,-1.752233 3.070138,-2.295179 0.936727,-0.01105 2.320169,-0.404099 3.771723,-1.349006 1.140284,-0.305202 2.400897,-1.896373 3.81889,-2.472465 0.761654,-0.873396 1.472571,-0.979871 2.02115,-1.837978 0.746542,-0.58874 2.279341,-1.32819 2.769056,-2.418441 1.08732,-1.197167 2.253333,-1.859837 2.386912,-3.179051 0.500537,-1.472109 0.952686,-2.304684 0.961432,-3.716298 0.808685,-1.005341 1.389933,-1.53705 1.498916,-2.698983 0.578039,-0.777435 1.710126,-2.62829 1.558511,-3.970798 0.114446,-0.881951 1.536251,-1.465896 1.322111,-2.768563 0.52906,-1.291357 0.95554,-2.803939 1.15575,-3.481833 0.33875,-1.701007 0.25733,-2.231932 0.97244,-3.891684 0.70058,-0.532183 2.08945,-2.479008 2.44849,-2.996682 1.02381,-1.456064 1.39159,-1.565292 2.22733,-2.940447 0.8774,-1.297549 2.28659,-1.141065 3.56821,-2.032115 1.57206,-0.440577 2.24988,-1.930895 3.38732,-3.654035 0.7284,-1.956955 3.11656,-3.144827 4.33604,-4.654197 1.4698,-1.902854 2.74389,-4.438762 4.85743,-6.513147 1.31589,-1.790956 2.80539,-4.003705 4.58148,-5.297885 1.42488,-1.570852 3.01433,-3.620098 4.25103,-4.796854 0.66259,-0.718718 1.66413,-1.60351 1.88783,-2.608118 0.32865,-0.320934 0.3699,-1.760246 0.56404,-1.735038 -0.23436,-0.470949 -0.0971,0.04679 0.25448,-0.328834 0.61789,-0.703964 0.62314,0.522002 0.65047,-0.529946 0.38701,-0.267445 0.94647,-1.435439 1.39864,-1.61558 1.01507,-0.559481 0.70798,-0.817723 1.43114,-1.545042 0.3968,-0.388564 0.75309,-1.56176 0.76456,-1.794774 0.0268,-0.921601 0.75213,-0.749577 1.01283,-1.614622 0.55257,-1.09314 0.1015,-1.357253 0.096,-1.593341 -0.3427,-0.806632 -0.29892,-0.641492 -0.40276,-1.457351 -0.49737,-0.799875 0.0573,-0.350192 0.024,-0.9398 0.21589,-0.825697 -0.46888,-1.76021 -0.88262,-1.800173 -0.27,-0.338762 -0.48929,-1.224145 -0.1384,-1.119626 -0.69659,-0.902549 -1.05402,0.109987 -1.32041,-0.712632 -0.14244,0.229326 -0.53881,-1.323095 -0.98234,-1.061804 -0.2148,0.299415 -0.63618,0.07084 -1.4653,-0.23288 0.15314,0.154319 -0.25804,-0.126202 -0.28329,-0.440988 -0.93434,-0.391637 -0.52777,-0.447099 -1.1309,-0.250359 -0.99561,0.512756 -1.77152,0.160042 -2.45187,-0.183639 z M 94.341692,50.090706 c 0.01409,-0.363976 -0.382616,0.0058 0,0 z" /><path
       id="path1009"
       style="fill:#4d4d4d;stroke:#000000;stroke-width:0.264585px;stroke-linecap:butt;stroke-linejoin:miter;stroke-opacity:1"
       d="m 31.105183,155.37306 c -0.18419,0.004 -0.361647,0.0607 -0.626454,0.17571 -0.91931,-0.22565 -1.756505,-0.26208 -2.573607,0.44988 -1.048298,0.71749 -0.929794,1.8963 -1.426613,2.25227 -0.394064,0.15801 -0.217318,2.48127 -1.147559,2.80097 -0.578804,0.8011 -1.22653,0.559 -1.408534,1.14123 -0.423581,0.57669 -0.780493,1.04451 -0.354178,2.02575 -0.07214,0.28159 0.273212,2.14636 -0.05254,2.7495 -0.152489,1.22164 -0.687448,1.07517 -0.476478,1.417 0.03443,0.24163 0.269322,1.20573 0.526751,2.2669 0.356355,0.53611 1.429242,1.39265 1.229748,1.64798 0.27164,0.86443 0.191984,1.52488 0.01277,2.84704 -0.212612,1.09166 0.911668,1.51268 1.415595,1.71884 -0.0552,0.90094 0.613662,1.59196 0.518562,2.07022 0.427408,0.92875 0.453582,2.10167 0.697348,2.1846 -0.23994,1.04784 -0.437853,0.91396 0.149696,0.82924 0.708333,0.12315 1.705849,1.4898 1.441863,1.76586 0.255788,0.59428 0.138396,0.70076 0.938553,1.3452 0.243759,1.28343 0.46336,1.4792 0.577592,2.49438 0.227914,0.62373 1.302013,2.3023 1.713572,2.69708 0.06395,1.45231 -0.211988,2.26332 0.507829,3.17841 0.263986,1.64309 1.354702,2.71383 1.374924,3.95459 0.895261,0.89867 1.339662,2.92811 1.947433,4.47977 0.54,1.11202 0.506708,2.47473 0.88602,3.99209 0.407731,1.2999 2.397299,2.71325 2.563999,4.82005 0.104395,1.31004 1.292642,3.59882 1.929925,5.32774 0.36072,1.42515 1.17869,4.23541 2.00618,7.46312 1.37951,2.3219 2.195,5.08156 2.85633,8.5068 0.86356,2.24929 2.1978,6.02365 2.69845,7.60481 1.56807,2.29443 2.24807,4.03085 3.62485,5.09423 1.23741,0.87666 1.60415,1.39463 2.55242,1.68993 0.22792,0.0937 0.88538,0.30814 1.35488,0.0454 0.769,0.0996 0.68867,-0.0823 0.85975,-0.52231 0.4274,-0.58636 0.20497,-0.52744 0.10986,-1.02083 -0.35047,-0.173 0.13164,-0.27492 0.50839,-0.43653 0.18586,0.15535 0.38841,0.32983 0.62053,0.53598 0.26141,0.23214 0.51353,0.55736 0.80298,0.90803 0.32128,0.3892 0.63161,0.8549 1.0182,1.30866 0.76603,0.89915 1.55651,1.75088 2.32195,2.61193 0.22669,0.25498 0.46158,0.54986 0.74509,0.83686 0.48794,0.49399 0.81367,0.67025 1.09191,1.06149 -0.0632,-0.0889 -0.0426,0.0135 0.11524,0.2799 0.0644,0.10869 0.0932,0.16455 0.17201,0.26179 0.0197,0.0243 0.0421,0.0529 0.0929,0.0959 0.0508,0.043 0.13019,0.13421 0.35531,0.13439 0.007,1e-5 0.009,-0.0111 0.0161,-0.0123 0.0118,0.11962 0.0251,0.41114 0.005,0.7228 -0.0219,0.34325 -0.0884,0.71331 -0.11835,0.79746 -0.07,0.19681 -0.2042,0.4204 -0.36717,0.67705 -0.30986,0.48797 -0.63948,0.96241 -0.98431,1.42305 -0.37346,0.49885 -0.89538,0.98225 -1.33002,1.66672 -0.38845,0.61176 -0.60282,1.24374 -0.8524,1.7503 -0.0653,0.0539 -0.17451,0.16255 -0.23754,0.37521 -0.10797,0.36437 -0.12443,0.6725 -0.16325,0.89087 -0.0416,0.23428 -0.11828,0.51979 -0.1528,0.86927 -0.0307,0.31066 -0.003,0.55406 -0.003,0.72312 v 0.97507 0.1633 c -0.0135,0.10279 -0.0339,0.3941 0.16974,0.62304 0.0331,0.0372 0.0677,0.0178 0.10593,0.0432 0.0226,0.043 0.005,0.0819 0.0384,0.11912 0.0186,0.021 0.039,0.006 0.0596,0.0238 0.0627,0.11999 0.11913,0.17486 0.1624,0.21256 -0.0161,-0.022 0.005,0.0874 0.1398,0.31454 0.12171,0.20531 0.22193,0.26775 0.21664,0.2618 0.25197,0.28344 0.44308,0.44045 0.49964,0.54043 0.22155,0.39163 0.41124,0.77361 0.5146,1.14568 0.0704,0.25353 0.0456,0.67167 0.12597,1.21398 v 10e-4 c 0.0513,0.34614 0.13265,0.54226 0.13981,0.61477 0.0332,0.33593 -0.003,0.74788 -0.003,1.22957 0,0.26593 0.0126,0.41887 0.007,0.50197 -0.0345,0.0544 -0.0928,0.13207 -0.13359,0.31582 -0.0286,0.12847 -0.011,0.16609 -0.005,0.23765 -0.0397,0.0474 -0.0564,0.0286 -0.096,0.1179 -0.0786,0.17679 -0.063,0.22469 -0.0672,0.27863 -0.004,0.0539 -0.004,0.0957 -0.004,0.13662 3e-4,0.082 0.004,0.15987 0.008,0.23415 0.001,0.0243 0.002,0.0387 0.003,0.0613 -0.0351,0.0453 -0.0486,0.0246 -0.083,0.10193 -0.04,0.0901 -0.007,0.0915 -0.0161,0.16108 -0.0475,0.0485 -0.0784,0.0506 -0.12908,0.16458 -0.008,0.0176 0.003,0.0144 -0.003,0.0312 -0.007,0.004 -0.0201,-3.5e-4 -0.0268,0.004 -0.10115,0.0569 -0.10292,0.0922 -0.14602,0.14551 -0.062,0.01 -0.0629,-0.0284 -0.1432,0.0168 -0.27908,0.15698 -0.33369,0.32708 -0.29572,0.28434 -0.0964,0.10844 -0.19169,0.21724 -0.28808,0.32567 -0.3311,0.37244 -0.45243,0.50605 -0.48467,0.54138 -5.5e-4,6.2e-4 -0.003,10e-4 -0.003,0.002 -0.007,0.009 -0.0117,0.0133 -0.0169,0.019 -1.6e-4,1.8e-4 -0.003,0.004 -0.003,0.004 -0.002,0.002 -0.005,0.007 -0.007,0.01 0,0 0.0358,0.0422 0.0395,0.0467 -0.0399,0.0527 -0.1192,0.16935 -0.41519,0.54393 -0.2085,0.26386 -0.43834,0.51655 -0.68012,0.76379 -0.25004,0.2557 -0.54836,0.50535 -0.85495,0.80095 -0.12905,0.12443 -0.16569,0.18171 -0.12936,0.14901 -0.14669,0.13201 -0.36353,0.27505 -0.59764,0.50548 -0.26611,0.26191 -0.43184,0.50965 -0.57449,0.64719 -0.0453,0.0437 -0.194,0.1201 -0.40445,0.29769 -0.0629,0.0531 -0.0646,0.0685 -0.0918,0.10451 -0.0928,0.0307 -0.18268,0.0323 -0.25957,0.11876 -0.20399,0.22933 -0.18212,0.52107 -0.16861,0.62336 h 1.07723 c -0.009,0.1007 0.0151,0.17715 -0.0907,0.29674 -0.096,0.10795 -0.22576,0.13625 -0.32028,0.14996 0.0753,0.0252 0.11383,0.0855 0.31492,-0.0276 0.15655,-0.0881 0.22331,-0.19409 0.25702,-0.24241 0.0748,-0.057 0.23178,-0.13421 0.43892,-0.33393 0.27143,-0.26169 0.43834,-0.51243 0.58267,-0.65449 0.12865,-0.12661 0.32982,-0.26287 0.55951,-0.46958 0.1428,-0.12851 0.18456,-0.20094 0.15902,-0.17633 0.26511,-0.25561 0.57354,-0.51233 0.88065,-0.82637 0.26265,-0.26859 0.52216,-0.55269 0.76655,-0.86196 0.37502,-0.47459 0.50208,-0.62921 0.61685,-0.82638 0.009,-0.0158 0.023,-0.0453 0.0353,-0.0709 0.0761,-0.0851 0.0635,-0.0699 0.19235,-0.21478 0.0964,-0.10844 0.19282,-0.21595 0.28922,-0.32438 v -10e-4 c 0.0108,-0.0123 0.0133,-0.0158 0.0189,-0.0228 0.0395,0.001 0.0523,0.0215 0.11975,-0.0166 0.0694,-0.0391 0.06,-0.0596 0.10027,-0.0997 0.0279,-5e-4 0.0362,0.019 0.0652,0.0134 0.18604,-0.0366 0.29511,-0.15246 0.35107,-0.22113 0.11192,-0.13735 0.12903,-0.20352 0.17625,-0.30977 0.0401,-0.0903 0.006,-0.0911 0.015,-0.16077 0.0474,-0.0485 0.0785,-0.0508 0.12908,-0.16457 0.0458,-0.10316 0.0111,-0.10783 0.0172,-0.18364 0.0612,-0.0636 0.11289,-0.0714 0.15901,-0.22717 0.0449,-0.1517 0.0327,-0.18304 0.0342,-0.22811 0.002,-0.0451 0.001,-0.0815 0,-0.11888 -0.002,-0.0744 -0.006,-0.14855 -0.01,-0.21859 -0.002,-0.0298 -10e-4,-0.047 -0.002,-0.0734 0.049,-0.0627 0.0864,-0.0548 0.12174,-0.1741 0.0551,-0.18596 0.0327,-0.28651 0.0223,-0.36728 0.0395,-0.0645 0.11272,-0.17039 0.14404,-0.3819 0.0525,-0.35463 0.008,-0.61217 0.008,-0.75775 0,-0.3859 0.0479,-0.84746 -0.004,-1.3738 -0.0367,-0.37187 -0.13421,-0.59072 -0.14828,-0.68562 -0.0474,-0.32011 -0.002,-0.80711 -0.16353,-1.3881 -0.15384,-0.55375 -0.40116,-1.0297 -0.64256,-1.4564 -0.23622,-0.41757 -0.52387,-0.61123 -0.65752,-0.76155 -0.0391,-0.044 -0.0552,-0.0626 -0.07,-0.0795 -0.01,-0.0399 -0.0493,-0.14528 -0.14659,-0.30945 -0.0514,-0.0867 -0.0717,-0.0903 -0.10902,-0.12614 -0.0269,-0.10586 -0.0297,-0.20943 -0.10789,-0.2977 -0.0333,-0.0375 -0.0682,-0.0177 -0.10677,-0.0432 -0.008,-0.0147 -0.004,-0.0268 -0.0128,-0.041 v -0.91978 c 0,-0.26473 -0.016,-0.45967 -0.004,-0.58015 0.0199,-0.19995 0.0829,-0.449 0.13755,-0.75648 0.0507,-0.2853 0.0739,-0.48848 0.111,-0.64845 0.0422,-0.0422 0.0597,-0.0301 0.11016,-0.12709 v -0.001 c 0.33864,-0.65325 0.54842,-1.28145 0.83885,-1.73885 0.31924,-0.50275 0.8115,-0.96792 1.27353,-1.58508 0.36319,-0.48515 0.71091,-0.98746 1.03995,-1.50565 0.16376,-0.25791 0.36169,-0.55966 0.50049,-0.94997 0.13217,-0.37171 0.17088,-0.7709 0.19742,-1.18634 0.0266,-0.41542 0.0326,-0.78999 -0.0212,-1.1228 -0.0722,-0.44649 -0.27551,-0.70696 -0.36209,-0.86927 -0.0383,-0.0718 -0.079,-0.14599 -0.15478,-0.23414 -0.0757,-0.0882 -0.209,-0.21766 -0.43129,-0.24148 -0.034,-0.004 -0.048,0.0306 -0.081,0.0336 -0.41203,-0.55513 -0.81521,-0.804 -1.17749,-1.17079 -0.22322,-0.22596 -0.44481,-0.5029 -0.70018,-0.79014 -0.77704,-0.8741 -1.56252,-1.72005 -2.30585,-2.59256 -0.32249,-0.37853 -0.62943,-0.83912 -1.00549,-1.29468 -0.16594,-0.20103 -0.33881,-0.42445 -0.5372,-0.64592 0.16828,-0.035 0.32427,-0.14006 0.42733,-0.36219 -0.0404,0.11629 1.10397,-0.76344 1.4718,-1.56252 0.20933,-0.84581 -0.0158,-1.47731 0.57336,-2.03083 0.5624,-0.68276 0.85446,-1.6614 0.26691,-3.24609 0.33066,-0.51714 -1.16866,-1.60117 -1.61246,-3.40176 0.13883,-1.37632 -0.7144,-2.32715 -1.2145,-4.25103 0.0891,-1.40282 -0.87495,-3.47109 -1.20179,-4.8051 -0.40281,-2.12861 0.28847,-2.53873 -0.76146,-4.6952 -1.02752,-2.52128 -1.95066,-4.36516 -2.07199,-5.80082 -0.26563,-2.41082 -1.2843,-4.90086 -1.74887,-6.54142 -1.00895,-1.74263 -2.42177,-3.59176 -2.52616,-4.96175 -0.77338,-1.89295 -1.00244,-2.78885 -1.5009,-4.59923 -1.03518,-1.88736 -2.49508,-3.49618 -2.74758,-4.66692 -0.9849,-1.33216 -0.1,-3.8334 -1.12638,-4.66722 -0.35691,-1.01512 -1.12655,-2.43186 -1.75509,-3.52599 -0.61324,-0.72769 -1.11159,-1.75208 -1.78221,-2.91789 -0.73676,-0.44174 -0.0536,-2.58529 -0.80834,-3.23877 -0.604497,-0.85687 -1.00919,-0.44397 -1.801698,-1.5406 -0.178178,-0.45233 -0.379874,-1.90166 -0.598497,-3.47485 0.0164,-1.31024 -0.04745,-2.7217 -0.392876,-3.74045 -0.0071,-0.58099 0.230095,-1.83904 0.252504,-2.52456 -0.09455,-0.70519 -0.07422,-2.30129 -0.670516,-3.50694 -0.637834,-1.5444 -0.270028,-1.96912 -0.3378,-3.20858 -0.683197,-1.17799 -1.850775,-2.24904 -1.89942,-2.81591 -0.396253,-0.14263 -0.360732,-0.52267 -1.078357,-1.53774 -0.422489,-0.75437 -1.944673,-1.09859 -2.61202,-0.93566 -0.78055,-0.27168 -1.106352,-0.41449 -1.413338,-0.40858 z M 61.806,259.44074 c 2e-4,10e-4 -0.004,0.007 -0.015,0.0156 -0.003,10e-4 -0.009,0.007 -0.0124,0.01 0.0155,-0.0174 0.0271,-0.0274 0.0274,-0.0254 z m -0.30221,4.28437 c -0.001,0.004 0.0244,0.14039 0.0128,0.18364 -0.002,-0.0194 -0.0247,-0.0512 -0.0246,-0.0661 5.4e-4,-0.0969 0.0131,-0.12307 0.0118,-0.11752 z m 1.36899,9.5686 c -0.002,-0.002 0.0161,0.009 0.046,0.0274 -0.0246,-0.013 -0.0439,-0.0247 -0.046,-0.0274 z m 0.0743,0.041 c 0.0297,0.01 0.0915,0.0111 0.12794,0.0257 -0.0233,-0.002 -0.0314,0.011 -0.0545,0.004 -0.028,-0.009 -0.0517,-0.0192 -0.0734,-0.0292 z m -1.44751,0.28149 c 0.11399,0.13628 0.57353,0.68386 0.66374,0.78539 -0.0439,0.007 -0.10915,0.0156 -0.10874,0.0156 5.1e-4,10e-6 -0.24806,-0.0637 -0.2477,-0.0635 3.6e-4,2e-4 -0.25102,-0.26598 -0.25081,-0.2656 1.9e-4,3.9e-4 -0.0749,-0.28145 -0.0748,-0.28085 2e-5,5.9e-4 0.003,-0.12244 0.01,-0.16077 0.003,-0.017 0.006,-0.0171 0.009,-0.0302 z" /></g></svg>
