<?xml version="1.0" encoding="UTF-8" standalone="no"?>
<!-- Created with Inkscape (http://www.inkscape.org/) -->

<svg
   width="396.875mm"
   height="400.68387mm"
   viewBox="0 0 396.875 400.68387"
   version="1.1"
   id="svg32427"
   inkscape:version="1.2 (dc2aeda, 2022-05-15)"
   sodipodi:docname="happy.svg"
   xmlns:inkscape="http://www.inkscape.org/namespaces/inkscape"
   xmlns:sodipodi="http://sodipodi.sourceforge.net/DTD/sodipodi-0.dtd"
   xmlns="http://www.w3.org/2000/svg"
   xmlns:svg="http://www.w3.org/2000/svg">
  <sodipodi:namedview
     id="namedview32429"
     pagecolor="#ffffff"
     bordercolor="#cccccc"
     borderopacity="1"
     inkscape:showpageshadow="0"
     inkscape:pageopacity="1"
     inkscape:pagecheckerboard="0"
     inkscape:deskcolor="#d1d1d1"
     inkscape:document-units="mm"
     showgrid="false"
     inkscape:zoom="0.2102413"
     inkscape:cx="214.03977"
     inkscape:cy="780.05606"
     inkscape:window-width="1520"
     inkscape:window-height="714"
     inkscape:window-x="0"
     inkscape:window-y="25"
     inkscape:window-maximized="0"
     inkscape:current-layer="layer1" />
  <defs
     id="defs32424">
    <filter
       inkscape:collect="always"
       style="color-interpolation-filters:sRGB"
       id="filter4184"
       x="-0.14015678"
       width="1.2803136"
       y="-0.089664854"
       height="1.1793297">
      <feGaussianBlur
         inkscape:collect="always"
         stdDeviation="32.637214"
         id="feGaussianBlur4186" />
    </filter>
    <filter
       inkscape:collect="always"
       style="color-interpolation-filters:sRGB"
       id="filter4262"
       x="-0.15957221"
       width="1.3191444"
       y="-0.096154668"
       height="1.1923093">
      <feGaussianBlur
         inkscape:collect="always"
         stdDeviation="23.227298"
         id="feGaussianBlur4264" />
    </filter>
  </defs>
  <g
     inkscape:label="Layer 1"
     inkscape:groupmode="layer"
     id="layer1"
     transform="translate(243.11334,51.841937)">
    <path
       inkscape:connector-curvature="0"
       id="path23974"
       d="m 2131.4589,96.42619 c -20.9837,-42.925465 -77.4728,-36.204088 -116.8856,-30.093767 -47.242,7.628863 -94.9931,25.372548 -124.2995,65.400667 -28.6142,32.21375 -47.8159,74.34801 -86.7149,95.68932 -49.1444,42.92829 -57.2524,113.39981 -100.3596,161.16497 -41.0142,61.15048 -56.4624,134.48523 -70.7631,205.52254 -44.3756,68.66996 -22.576,153.68764 -0.6868,225.95697 11.2318,40.74926 23.8182,86.5339 58.5797,113.59532 52.5795,14.63016 34.1581,-65.96722 42.8003,-98.57408 5.6727,-79.75178 -30.9234,-154.16887 -34.4924,-233.24507 -9.3242,-84.70072 22.132,-173.85099 89.739,-227.60314 35.8895,-35.48741 84.9256,-53.72897 120.9375,-88.30036 37.9369,-40.06009 76.6754,-80.99934 124.9449,-108.23053 36.0149,-29.26887 89.3824,-8.79546 126.1168,-35.18132 18.8642,-18.06284 -20.1765,-62.779689 -21.8224,-63.187859 10.4273,17.942529 -32.0638,7.93742 -7.0939,17.086339 z"
       style="opacity:0.569579;fill:#ffee74;fill-opacity:1;fill-rule:evenodd;stroke:none;stroke-width:1;stroke-linecap:butt;stroke-linejoin:miter;stroke-dasharray:none;stroke-opacity:1;filter:url(#filter4184)"
       transform="matrix(0.26458333,0,0,0.26458333,-639.98834,-47.479264)" />
    <path
       sodipodi:nodetypes="ccccccccccccccccccccccc"
       inkscape:connector-curvature="0"
       id="path23970"
       d="m -104.02943,-33.71718 -38.48563,18.368146 -62.10181,88.34204 c -5.36995,35.616184 -16.67449,70.638904 0,108.459534 7.59196,24.42891 16.26254,47.59942 37.61095,55.97912 l 54.22976,25.36555 19.242831,5.24804 48.107044,4.37335 56.853798,1.74934 55.979112,-27.11487 39.360315,-34.98696 23.61618,-61.22715 3.49869,-43.73368 L 119.01236,61.622249 90.148145,10.891176 63.033248,-11.850338 25.422278,-26.719791 -2.5672782,-30.218485 -25.308798,-33.71718 -43.67694,-36.341201 h -34.112279 l -18.368142,3.498695 z"
       style="fill:#fbdc16;fill-opacity:1;fill-rule:evenodd;stroke:none;stroke-width:0.264583;stroke-linecap:butt;stroke-linejoin:miter;stroke-dasharray:none;stroke-opacity:1" />
    <path
       inkscape:connector-curvature="0"
       id="path23976"
       d="m 2911.6402,580.95069 c -61.5923,-1.94568 -71.5563,63.53102 -76.2037,108.29278 -7.9942,48.42473 -38.4879,87.36483 -41.6241,138.18269 -10.9098,26.74329 -39.0705,75.52598 -58.3083,105.97095 -4.1385,46.75181 -14.7528,70.47049 -42.052,104.35729 -33.1996,21.7702 -64.6866,48.7388 -103.0114,60.6684 -46.3586,12.7514 -18.3511,86.2326 26.4026,54.235 33.0751,-9.5751 73.4594,-44.9593 86.5282,-62.6057 21.1063,-13.5315 56.2941,-20.2588 67.4349,-58.1171 21.4464,-36.4621 41.5684,-70.28544 53.0627,-113.72461 23.5676,-34.28219 37.4678,-75.66706 56.2265,-113.32977 15.282,-46.87364 40.6956,-92.46873 35.0387,-143.41939 -2.1454,-24.06711 3.0206,-87.08362 -3.1643,-70.61278 z"
       style="opacity:0.634;fill:#e3c817;fill-opacity:1;fill-rule:evenodd;stroke:none;stroke-width:1;stroke-linecap:butt;stroke-linejoin:miter;stroke-dasharray:none;stroke-opacity:1;filter:url(#filter4262)"
       transform="matrix(0.26458333,0,0,0.26458333,-639.98834,-47.479264)" />
    <path
       style="fill:#000000;stroke-width:0.264583;stroke-dasharray:none"
       inkscape:connector-curvature="0"
       id="path23982"
       d="m 24.590507,274.18792 c 6.429375,-1.40229 11.350625,-4.52438 15.875,-6.61458 5.212292,-2.59292 10.742083,-5.10646 15.08125,-7.40834 5.688541,-2.09021 9.763125,-6.05896 14.2875,-8.20208 4.550833,-3.20146 9.604375,-6.19125 13.229166,-9.26042 4.736042,-2.98979 7.831667,-7.9375 11.641667,-10.58333 4.074583,-3.88937 8.12271,-7.88458 10.84792,-11.90625 2.43416,-5.23874 5.37104,-10.31874 7.67291,-14.81666 2.98979,-4.65667 5.52979,-10.16 7.67292,-14.55208 3.22792,-4.65667 5.3975,-10.53042 7.14375,-15.61042 1.71979,-5.87375 4.36562,-11.24479 5.55625,-16.66875 1.71979,-5.97958 2.48708,-12.56771 3.175,-18.78542 v -22.48958 c -0.44979,-6.93208 -0.3175,-15.10771 -1.85208,-20.372916 -1.29646,-6.297084 -3.38667,-12.250209 -5.02709,-17.727083 -1.5875,-5.715 -3.06916,-12.276667 -5.55625,-16.66875 -2.61937,-4.92125 -5.52979,-10.054167 -7.9375,-14.552083 -1.905,-5.609167 -5.45041,-10.107084 -8.20208,-14.552084 -2.40771,-4.815416 -4.92125,-10.318749 -7.9375,-14.287499 C 97.218631,14.711053 94.202381,9.7104281 89.94259,6.9587614 85.868006,3.5985531 81.608215,-0.15853014 77.771757,-3.0954051 c -3.836459,-3.81 -9.630834,-6.0589583 -13.49375,-8.9958329 -4.630209,-3.01625 -9.419167,-6.244167 -14.816667,-7.9375 -5.132916,-2.196042 -11.138958,-4.233333 -16.404166,-6.085417 -5.423958,-1.905 -11.27125,-4.074583 -18.25625,-3.968749 -6.5616665,-0.978959 -13.96999978,-1.613959 -20.108333,-2.645834 -6.50875,-0.740833 -11.932708,-3.360208 -17.991666,-4.497916 -5.318125,-1.905 -13.890625,-1.349375 -20.372917,-1.852084 -7.3025,0.3175 -14.869583,-1.42875 -21.695833,0 -6.879167,0.132292 -14.948958,0.105834 -20.372916,1.852084 -5.503334,1.74625 -14.393329,0.899583 -19.579169,2.910416 -5.55625,1.666875 -13.57312,1.666875 -18.78541,3.704167 -4.78896,2.407708 -9.26042,5.979583 -14.2875,8.202083 -4.5773,2.592916 -8.36084,6.852708 -12.17084,10.31875 -3.54541,3.5718746 -7.91104,7.2760413 -11.1125,11.37708287 -2.96333,4.12749993 -6.24416,8.88999993 -9.26041,12.96458313 -3.33375,3.995208 -6.27063,9.101667 -9.525,13.229167 -2.56646,4.471458 -5.63563,9.445624 -8.46667,13.758333 -2.54,4.709583 -5.31812,10.00125 -7.9375,14.816666 -1.98437,5.000625 -4.49792,10.530417 -6.87917,15.345833 -1.53458,5.662084 -4.02166,11.244792 -5.55625,16.933333 -1.98437,5.212292 -3.75708,11.456459 -4.49791,17.99167 -1.24354,5.90021 -1.56104,13.62604 -2.11667,20.37291 0.37042,6.87917 -0.34396,14.94896 0.26458,21.43125 0.1323,7.59354 1.42875,14.31396 1.85209,20.90209 1.24354,6.19125 2.88396,12.59416 4.7625,17.72708 1.71979,5.66208 4.49791,10.92729 6.08541,16.13958 2.93688,4.68313 5.3975,10.26584 8.20209,14.2875 3.3602,4.23333 6.985,8.65187 9.78958,12.7 4.18042,3.38666 8.33437,7.27604 11.90625,10.58333 4.60375,2.93687 9.73667,5.84729 14.2875,8.20208 4.47146,3.04271 9.92187,5.60917 14.02292,8.73125 5.37104,1.85209 10.58333,4.68313 16.13958,6.08542 5.31812,2.14312 11.50937,3.99521 16.93333,5.55625 1.21709,0.635 2.54992,1.1956 4.74184,1.75699 2.19189,0.56142 7.429551,3.31034 12.08291,3.94864 4.65336,0.63831 8.72244,2.22737 17.323859,3.09306 8.601445,0.86569 18.673921,1.44534 32.71004,2.68888 14.320572,0.41011 26.234998,-0.79608 34.8401474,-0.87008 8.605176,-0.074 14.7757619,-1.63986 19.3580013,-1.94908 4.5822393,-0.30924 7.5761853,-0.67387 9.8280273,-0.96946 2.251869,-0.29559 3.761634,-0.52213 5.375592,-0.5552 z M -114.31574,257.78375 c -4.20688,-0.92604 -7.75229,-2.56646 -11.64167,-3.70416 -4.10104,-1.21709 -7.56708,-2.93688 -11.1125,-4.49792 -3.43958,-1.77271 -6.77333,-3.62479 -10.31875,-5.29167 -3.09562,-2.11666 -6.72041,-4.445 -9.78958,-6.08541 -2.96333,-2.2225 -6.08542,-4.28625 -9.26042,-6.08542 -2.80458,-2.56646 -5.42396,-5.10646 -8.73125,-7.14375 -2.06375,-2.93687 -4.68312,-5.47687 -6.87916,-8.46667 -2.40771,-2.85749 -4.8948,-6.29707 -6.61459,-9.52499 -1.64041,-3.30729 -3.62479,-6.50875 -5.29166,-10.05417 -1.905,-3.22791 -2.88396,-7.43479 -4.7625,-10.58333 -0.97896,-4.33917 -2.61938,-7.85813 -3.70417,-11.90625 -0.87312,-4.41854 -2.11667,-9.12813 -2.38125,-13.49375 -0.58208,-4.68313 -1.00542,-9.41917 -1.32292,-14.2875 -0.71437,-4.47146 -0.0794,-10.26583 -0.52916,-15.08125 0.0265,-5.52979 0.60854,-10.13354 1.05833,-14.81667 -0.10583,-5.3975 1.16417,-10.10708 1.5875,-14.2875 0.87313,-4.39208 1.93146,-8.51958 3.175,-12.17083 0.68792,-4.7625 2.75167,-7.858125 3.70417,-11.906249 1.85208,-3.518959 3.09562,-7.434792 4.49791,-10.847917 1.5875,-4.021667 3.54542,-8.016875 4.7625,-11.1125 1.95792,-3.624791 3.65125,-7.090833 5.55625,-10.31875 1.77271,-3.466041 3.96875,-6.429375 5.55625,-9.789583 2.2225,-3.148542 4.23334,-6.35 6.08542,-9.260416 2.38125,-3.254375 4.78896,-6.799792 6.61458,-9.525 2.16959,-3.175 4.73604,-5.794375 6.61459,-8.9958336 2.56645,-2.6987499 4.49791,-5.9266666 7.14375,-8.20208321 2.83104,-2.59291659 5.42395,-5.18583329 7.9375,-7.67291659 2.59291,-2.8310416 6.2177,-5.1593746 8.46666,-7.4083336 3.41313,-1.957916 6.48229,-4.074583 9.78959,-5.55625 3.22791,-2.328333 7.43479,-3.280833 10.58333,-5.027083 4.25979,-1.190625 9.04875,-1.5875 13.49375,-1.852083 4.815415,-0.899583 9.630832,-2.037292 13.493749,-2.645833 4.339166,-1.084792 8.493125,-2.090208 13.493749,-1.852083 5.715,0.132291 9.736667,-1.031875 15.08125,-0.529167 5.291667,-0.05292 10.847917,-0.423333 15.08125,0.529167 5.926667,-0.687917 10.95375,0.211666 15.08125,0.79375 4.445,0.740833 8.625416,1.746249 12.435416,3.174999 3.757084,1.349375 8.4931253,1.799167 12.7000003,2.910417 5.1329166,-0.105833 9.4985415,0.687917 14.2874997,1.058333 4.815417,0.449792 10.027708,1.190625 13.49375,2.645833 3.704167,1.27 7.752291,2.38125 11.377083,3.96875 3.942292,1.190625 8.175625,2.143125 11.377083,4.233334 4.233334,0.820208 7.037917,3.1749996 10.31875,5.2916663 3.148542,1.8785416 6.773333,4.2068749 9.789583,6.0854166 3.836459,1.16416663 5.609167,4.5772916 8.995834,6.3499999 2.2225,2.9633333 5.715,4.6302083 7.937499,7.4083332 3.042709,2.301875 5.159375,5.371042 7.14375,8.73125 2.143125,2.936875 4.471459,6.561667 5.55625,10.054166 2.275417,3.042709 3.862914,6.614584 5.820834,9.789584 2.64583,2.566458 4.02167,6.376458 5.82083,9.789583 1.48167,3.65125 3.41313,6.879166 4.7625,10.583333 2.51354,2.8575 3.78354,7.540625 5.02709,11.1125 1.19062,3.889375 2.0902,8.175625 3.43958,11.90625 1.05833,4.206875 2.64583,7.77875 3.43958,12.170833 0.66146,4.497913 1.08479,9.233963 1.5875,14.022913 v 15.875 c -0.0794,4.81542 0.55563,10.60979 -0.52916,15.08125 -0.1323,4.65667 -0.92605,9.02229 -2.38125,12.96459 -0.58209,4.39208 -2.2225,7.91104 -3.70417,11.90625 -1.40229,3.54541 -2.59292,8.30791 -3.96875,11.90625 -1.61396,3.30729 -3.30729,6.77333 -5.29167,10.05416 -1.87854,3.20146 -3.41312,6.85271 -5.29166,10.31875 -1.95792,3.04271 -3.73063,6.42938 -5.82084,9.78959 -1.640414,3.33375 -3.91583,7.01145 -5.82083,10.31874 l -7.672917,7.67292 -7.672916,7.67291 c -2.301875,2.72521 -5.767917,4.41854 -8.73125,7.14375 -3.254375,1.48167 -6.50875,4.18042 -9.789584,6.08542 -2.963333,1.77271 -5.847291,4.04812 -9.789583,5.55625 -2.831041,2.09021 -6.799791,3.25437 -10.054166,5.29167 -3.4925,1.56104 -7.196667,3.0427 -10.583333,5.02708 -3.598334,1.45521 -8.387292,2.61937 -11.90625,3.96875 -0.234818,0.043 -0.527368,0.0716 -0.974672,0.0857 -0.447331,0.014 -1.049391,0.0135 -1.903254,-0.003 -0.853863,-0.0154 -1.959531,-0.0452 -3.414025,-0.0901 -1.454467,-0.0449 -3.2577613,0.95358 -5.5069313,0.87863 -2.2491435,-0.0749 -4.9441628,0.89334 -8.1820278,0.78798 -3.2378914,-0.10538 -7.0186549,1.36147 -11.4393399,1.22531 -4.420684,-0.13615 -9.48129,0.77055 -15.278814,0.60325 -5.797523,-0.1673 -12.331991,0.70805 -19.700451,0.50922 -7.277391,-0.61556 -13.714995,-2.23563 -19.416316,-2.74945 -5.701321,-0.51379 -10.666359,-2.03798 -14.99862,-2.46173 -4.332288,-0.42376 -8.031824,-1.33459 -11.202141,-1.68 -3.170317,-0.34539 -5.811414,-2.24203 -8.026799,-2.52077 -2.21541,-0.27873 -4.00513,-1.05624 -5.47267,-1.28 -1.46753,-0.22375 -2.61291,-1.48129 -3.53967,-1.66177 -0.92673,-0.18047 -1.63486,-0.34223 -2.22787,-0.49111 -0.59299,-0.14889 -1.0709,-0.28491 -1.53723,-0.41389 z"
       sodipodi:nodetypes="ccccccccccccccccccccccccccccccccccccccccccccccccccccccssscsssczccccccccccccccccccccccccccccccccccccccccccccccccccccccccccccccccccccccccssssssscssssssscz" />
    <path
       d="m 23.404063,190.38825 c 1.177396,-1.38907 4.121943,-4.43355 6.890067,-6.971 2.768124,-2.53745 5.540163,-4.58639 7.672917,-7.67292 2.132753,-3.08653 7.3025,-3.94229 8.466666,-7.40833 2.619375,-2.64583 2.963334,-7.48771 7.408333,-8.20208 5.55625,-0.66146 6.429375,6.32354 2.910417,8.46666 -3.466042,1.85209 -4.92125,5.58271 -7.408333,8.20209 -2.037292,3.28083 -5.871369,5.22955 -8.202083,7.9375 -2.330715,2.70795 -4.193091,6.23573 -7.408334,8.20208 -3.215243,1.96635 -7.190687,2.97341 -10.583333,4.7625 -3.392646,1.78909 -6.719676,3.6415 -10.583333,5.02708 -3.8636575,1.38559 -7.6464318,3.29406 -11.3770832,4.49792 -3.7306514,1.20386 -7.2314064,2.93564 -11.3770828,3.96874 -4.145677,1.03312 -7.963959,2.43417 -12.7,2.91042 -4.365625,0.76729 -9.921875,0.39687 -15.08125,0.26458 -4.92125,-0.0265 -9.873271,-1.02745 -14.022917,-1.85208 -4.149645,-0.8246 -8.462909,-1.9703 -12.699999,-2.91041 -4.237091,-0.9401 -7.790445,-2.38073 -11.641667,-3.70417 -3.851222,-1.32344 -7.365497,-2.97235 -11.1125,-4.49791 -3.747002,-1.52557 -7.449608,-3.45925 -10.583333,-5.29167 -3.133695,-1.83242 -6.420725,-3.9937 -9.524995,-6.08542 -3.10428,-2.09172 -5.8473,-4.23333 -9.26042,-6.08541 -2.77813,-2.27542 -5.79438,-4.445 -8.99583,-6.61459 -2.56646,-2.48708 -6.11188,-4.89479 -8.46667,-7.40833 -2.67229,-2.35479 -4.86833,-5.31812 -8.20208,-7.40833 -1.77271,-3.14854 -5.02709,-5.08 -7.14375,-8.46667 -2.59292,-2.24896 -3.86292,-6.13833 -6.87917,-8.73125 -3.88938,-3.75708 0.68792,-7.85812 4.49792,-7.9375 5.3975,-0.0265 5.00062,5.52979 7.40833,7.9375 1.905,3.62479 4.63021,6.08542 6.61458,8.99583 2.30188,3.14855 5.55625,5.08 8.20209,7.40834 2.51354,2.93687 5.60916,5.79437 7.9375,7.9375 3.51895,1.905 5.79437,4.78896 8.99583,6.35 2.96333,2.61937 5.91336,4.53756 8.99583,6.61458 3.08248,2.07702 6.244142,4.16717 9.525002,6.08542 3.280859,1.91824 6.626119,4.29873 10.054166,5.82083 3.428048,1.5221 10.479828,3.38589 11.895349,4.32516 1.415521,0.93927 7.216272,2.3557 10.879058,3.53371 3.662786,1.178 7.803145,2.88362 11.09771,3.5337 3.294565,0.65008 4.008861,0.31811 8.473704,0.69101 4.46487,0.37291 12.945481,2.01178 18.313771,1.56569 5.368316,-0.44609 9.441047,-2.2971 13.503089,-3.46368 4.0620157,-1.16659 7.2076469,-2.05842 10.87905814,-3.46369 3.67138476,-1.40527 7.32319036,-3.18606 11.09770986,-4.99437 3.774546,-1.8083 10.35767,-4.47997 11.535066,-5.86903 z"
       style="fill:#000000;stroke-width:0.264583;stroke-dasharray:none"
       id="path25123" />
    <path
       id="path25190"
       style="fill:#fbdc16;fill-opacity:0;stroke:#000000;stroke-width:5.74146;stroke-linecap:round;stroke-dasharray:none"
       d="m -42.144923,57.230049 c 0,5.4653 -2.729759,10.671903 -4.795361,15.407571 -2.065602,4.735669 -2.937933,7.942075 -6.631437,11.523652 -3.693504,3.581575 -8.620681,9.125823 -13.504333,11.128841 -4.883653,2.00302 -10.252975,3.110645 -15.889049,3.110645 -5.636102,0 -11.005423,-4.282625 -15.889076,-6.285645 -4.883651,-2.003018 -9.810831,-3.8431 -13.504331,-7.424674 -3.69351,-3.581578 -5.095,-7.31715 -7.16061,-12.052819 -2.06562,-4.735668 -4.26619,-9.942271 -4.26619,-15.407571 0,-5.465302 1.14223,-10.671902 3.20786,-15.407571 2.0656,-4.735671 5.0546,-9.00041 8.7481,-12.581985 3.69351,-3.581577 7.03318,-6.47999 11.916838,-8.48301 4.883652,-2.00302 11.311307,-2.581478 16.947409,-2.581478 5.636074,0 11.005396,-0.479875 15.889049,1.523145 4.883652,2.00302 9.810829,5.959766 13.504333,9.541343 3.693504,3.581575 5.095002,7.846314 7.160604,12.581985 2.065602,4.735669 4.266194,9.942269 4.266194,15.407571 z"
       sodipodi:nodetypes="sssssssssssssssss" />
    <path
       id="path26552"
       style="fill:#fbdc16;fill-opacity:0;stroke:#000000;stroke-width:5.74146;stroke-linecap:round;stroke-dasharray:none"
       d="m 14.083348,21.283147 c 5.31278,-1.282123 11.014471,0.15 16.102568,1.047004 5.088096,0.897027 8.409648,0.99279 12.757758,3.743007 4.348083,2.750219 10.893504,6.239253 13.986298,10.516727 3.092794,4.2775 5.429118,9.23712 6.751294,14.715929 1.322202,5.478807 -1.581309,11.702952 -2.382759,16.920223 -0.801449,5.217266 -1.434306,10.438617 -4.049474,14.869261 -2.615142,4.430638 -5.917697,6.669357 -10.036625,9.788281 -4.118927,3.118927 -8.663992,6.479521 -13.976799,7.761641 -5.312781,1.28212 -10.642044,1.3932 -15.730141,0.49618 C 12.417372,100.24439 7.5704702,98.339287 3.2223606,95.589073 -1.1257224,92.838856 -4.726728,90.272324 -7.8195219,85.994845 -10.912316,81.717366 -12.982522,75.604798 -14.304697,70.125992 -15.6269,64.647183 -17.352962,59.540296 -16.551539,54.323006 -15.75009,49.105743 -13.059621,43.387841 -10.44448,38.957197 -7.8293115,34.526553 -4.0123795,32.163713 0.10657444,29.04477 4.2255019,25.925857 8.7705672,22.565267 14.083348,21.283147 Z"
       sodipodi:nodetypes="sssssssssssssssss" />
    <path
       id="path26554"
       style="fill:#fbdc16;fill-opacity:0;stroke:#000000;stroke-width:13.2292;stroke-linecap:round;stroke-dasharray:none"
       d="m -70.600675,62.900131 c 0,1.592048 -0.744114,3.10874 -1.3072,4.488249 -0.563086,1.379508 -0.800867,2.31354 -1.807713,3.356858 -1.006845,1.043316 -2.349976,2.658367 -3.681253,3.241847 -1.331251,0.583483 -2.794926,0.906137 -4.331309,0.906137 -1.536382,0 -3.000031,-1.247534 -4.331308,-1.831017 -1.331251,-0.583483 -2.674382,-1.119502 -3.681228,-2.162821 -1.006845,-1.043318 -1.388877,-2.131496 -1.951963,-3.511004 -0.563086,-1.379509 -1.16295,-2.896201 -1.16295,-4.488249 0,-1.592054 0.311362,-3.108743 0.874448,-4.488252 0.563086,-1.379505 1.377871,-2.621832 2.384716,-3.665151 1.006846,-1.043321 1.917224,-1.887632 3.248475,-2.471115 1.331277,-0.583481 3.083428,-0.751989 4.61981,-0.751989 1.536383,0 3.000058,-0.139787 4.331309,0.443696 1.331277,0.58348 2.674408,1.736087 3.681253,2.779408 1.006846,1.043319 1.388878,2.285646 1.951964,3.665151 0.56306,1.379509 1.162949,2.896198 1.162949,4.488252 z"
       sodipodi:nodetypes="sssssssssssssssss" />
    <path
       id="path26556"
       style="fill:#fbdc16;fill-opacity:0;stroke:#000000;stroke-width:13.2292;stroke-linecap:round;stroke-dasharray:none"
       d="m 33.305247,61.663156 c 0,1.592048 -0.744114,3.108741 -1.3072,4.488249 -0.563087,1.379508 -0.800868,2.31354 -1.807713,3.356859 -1.006845,1.043315 -2.349976,2.658366 -3.681227,3.241846 -1.331278,0.583483 -2.794953,0.906138 -4.331309,0.906138 -1.536382,0 -3.000057,-1.247535 -4.331308,-1.831018 -1.331278,-0.583483 -2.674408,-1.119502 -3.681254,-2.16282 -1.006819,-1.043318 -1.388877,-2.131497 -1.951963,-3.511005 -0.56306,-1.379508 -1.16295,-2.896201 -1.16295,-4.488249 0,-1.592053 0.311388,-3.108743 0.874474,-4.488251 0.56306,-1.379506 1.377845,-2.621833 2.38469,-3.665151 1.006845,-1.043321 1.917224,-1.887633 3.248501,-2.471116 1.331278,-0.58348 3.083428,-0.751988 4.61981,-0.751988 1.536383,0 3.000031,-0.139788 4.331309,0.443695 1.331251,0.583481 2.674382,1.736088 3.681227,2.779409 1.006845,1.043318 1.388877,2.285645 1.951964,3.665151 0.563086,1.379508 1.162949,2.896198 1.162949,4.488251 z"
       sodipodi:nodetypes="sssssssssssssssss" />
    <rect
       style="fill:#fbdc16;fill-opacity:0;stroke:#000000;stroke-width:0.264582;stroke-linecap:round;stroke-dasharray:none;stroke-opacity:0"
       id="rect31641"
       width="396.61041"
       height="395.50284"
       x="-242.98105"
       y="-46.793179" />
  </g>
</svg>
