<?xml version="1.0" encoding="UTF-8" standalone="no"?>
<!-- Created with Inkscape (http://www.inkscape.org/) -->

<svg
   width="396.875mm"
   height="400.83548mm"
   viewBox="0 0 396.875 400.83548"
   version="1.1"
   id="svg22242"
   inkscape:version="1.2 (dc2aeda, 2022-05-15)"
   sodipodi:docname="sick.svg"
   xmlns:inkscape="http://www.inkscape.org/namespaces/inkscape"
   xmlns:sodipodi="http://sodipodi.sourceforge.net/DTD/sodipodi-0.dtd"
   xmlns="http://www.w3.org/2000/svg"
   xmlns:svg="http://www.w3.org/2000/svg">
  <sodipodi:namedview
     id="namedview22244"
     pagecolor="#ffffff"
     bordercolor="#cccccc"
     borderopacity="1"
     inkscape:showpageshadow="0"
     inkscape:pageopacity="1"
     inkscape:pagecheckerboard="0"
     inkscape:deskcolor="#d1d1d1"
     inkscape:document-units="mm"
     showgrid="false"
     inkscape:zoom="0.21071098"
     inkscape:cx="-11.864593"
     inkscape:cy="643.06094"
     inkscape:window-width="1721"
     inkscape:window-height="889"
     inkscape:window-x="106"
     inkscape:window-y="34"
     inkscape:window-maximized="0"
     inkscape:current-layer="layer1" />
  <defs
     id="defs22239">
    <filter
       inkscape:collect="always"
       style="color-interpolation-filters:sRGB"
       id="filter4184"
       x="-0.14015678"
       width="1.2803136"
       y="-0.089664854"
       height="1.1793297">
      <feGaussianBlur
         inkscape:collect="always"
         stdDeviation="32.637214"
         id="feGaussianBlur4186" />
    </filter>
    <filter
       inkscape:collect="always"
       style="color-interpolation-filters:sRGB"
       id="filter4262"
       x="-0.15957221"
       width="1.3191444"
       y="-0.096154664"
       height="1.1923093">
      <feGaussianBlur
         inkscape:collect="always"
         stdDeviation="23.227298"
         id="feGaussianBlur4264" />
    </filter>
  </defs>
  <g
     inkscape:label="Layer 1"
     inkscape:groupmode="layer"
     id="layer1"
     transform="translate(-55.943671,17.51191)">
    <path
       sodipodi:nodetypes="ccccccccccccccccccccccc"
       inkscape:connector-curvature="0"
       id="path24391"
       d="M 195.02759,0.61284849 156.54197,18.980994 94.440137,107.32303 c -5.369959,35.61619 -16.67447,70.63891 0,108.45954 7.591953,24.4289 16.262543,47.59942 37.610963,55.97912 l 54.22977,25.36555 19.24282,5.24804 48.10705,4.37335 56.8538,1.74935 55.9791,-27.11487 39.36032,-34.98697 23.61617,-61.22715 3.4987,-43.73368 L 418.06938,95.952277 389.20516,45.221204 362.09026,22.47969 324.4793,7.610237 296.48974,4.1115431 273.74823,0.61284849 255.38008,-2.0111726 H 221.2678 l -18.36814,3.4986947 z"
       style="fill:#bcdc16;fill-opacity:1;fill-rule:evenodd;stroke:none;stroke-width:0.264583;stroke-linecap:butt;stroke-linejoin:miter;stroke-dasharray:none;stroke-opacity:1" />
    <path
       inkscape:connector-curvature="0"
       id="path24393"
       d="m 596.54653,121.44087 c -20.9837,-42.925466 -77.4728,-36.204089 -116.8856,-30.093768 -47.242,7.628863 -94.9931,25.372548 -124.29956,65.400668 -28.61421,32.21375 -47.81585,74.34801 -86.71491,95.68932 -49.1444,42.92829 -57.25231,113.39981 -100.35957,161.16497 -41.01418,61.15048 -56.46235,134.48523 -70.76309,205.52254 -44.37557,68.66996 -22.57599,153.68764 -0.68684,225.95697 11.23183,40.74926 23.81822,86.5339 58.57975,113.59532 52.57951,14.63016 34.15804,-65.96722 42.80033,-98.57408 5.67262,-79.75178 -30.92342,-154.16887 -34.4924,-233.24507 -9.32425,-84.70072 22.13193,-173.85099 89.73894,-227.60314 35.8895,-35.48741 84.92564,-53.72897 120.93755,-88.30036 37.9369,-40.06009 76.6754,-80.99934 124.9449,-108.23053 36.0149,-29.26887 89.3824,-8.79546 126.1168,-35.18132 18.8642,-18.06284 -20.1765,-62.77969 -21.8224,-63.18786 10.4273,17.94253 -32.0638,7.93742 -7.0939,17.08634 z"
       style="opacity:0.569579;fill:#ffee74;fill-opacity:1;fill-rule:evenodd;stroke:none;stroke-width:1;stroke-linecap:butt;stroke-linejoin:miter;stroke-dasharray:none;stroke-opacity:1;filter:url(#filter4184)"
       transform="matrix(0.26458333,0,0,0.26458333,65.180909,-19.767703)" />
    <path
       inkscape:connector-curvature="0"
       id="path24395"
       d="m 1376.7278,605.96537 c -61.5923,-1.94568 -71.5563,63.53102 -76.2037,108.29278 -7.9942,48.42473 -38.4879,87.36483 -41.6241,138.18269 -10.9098,26.74329 -39.0705,75.52598 -58.3083,105.97095 -4.1385,46.75181 -14.7528,70.47051 -42.052,104.35731 -33.1996,21.7702 -64.6866,48.7388 -103.0114,60.6684 -46.3586,12.7514 -18.3511,86.2326 26.4026,54.235 33.0751,-9.5751 73.4594,-44.9593 86.5282,-62.6057 21.1063,-13.5315 56.2941,-20.2588 67.4349,-58.1171 21.4464,-36.4621 41.5684,-70.28546 53.0627,-113.72463 23.5676,-34.28219 37.4678,-75.66706 56.2265,-113.32977 15.282,-46.87364 40.6956,-92.46873 35.0387,-143.41939 -2.1454,-24.06711 3.0206,-87.08362 -3.1643,-70.61278 z"
       style="opacity:0.634;fill:#e3c817;fill-opacity:1;fill-rule:evenodd;stroke:none;stroke-width:1;stroke-linecap:butt;stroke-linejoin:miter;stroke-dasharray:none;stroke-opacity:1;filter:url(#filter4262)"
       transform="matrix(0.26458333,0,0,0.26458333,65.180909,-19.767703)" />
    <path
       style="fill:#000000;stroke-width:0.264583;stroke-dasharray:none"
       inkscape:connector-curvature="0"
       id="path24397"
       d="m 322.39185,307.26228 c 6.42938,-1.40229 11.35063,-4.52437 15.875,-6.61458 5.21229,-2.59292 10.74209,-5.10646 15.08125,-7.40833 5.68854,-2.09021 9.76313,-6.05896 14.2875,-8.20209 4.55083,-3.20145 9.60438,-6.19125 13.22917,-9.26041 4.73604,-2.98979 7.83166,-7.9375 11.64166,-10.58334 4.07459,-3.88937 8.12271,-7.88458 10.84792,-11.90625 2.43417,-5.23875 5.37104,-10.31875 7.67292,-14.81666 2.98979,-4.65667 5.52979,-10.16 7.67291,-14.55209 3.22792,-4.65666 5.3975,-10.53041 7.14375,-15.61041 1.7198,-5.87375 4.36563,-11.24479 5.55625,-16.66875 1.7198,-5.97959 2.48709,-12.56771 3.175,-18.78542 v -22.48958 c -0.44979,-6.93208 -0.3175,-15.10771 -1.85208,-20.37292 -1.29646,-6.29708 -3.38667,-12.25021 -5.02708,-17.72708 -1.5875,-5.715 -3.06917,-12.276669 -5.55625,-16.66875 -2.61938,-4.92125 -5.52979,-10.054166 -7.9375,-14.552083 -1.905,-5.609167 -5.45042,-10.107083 -8.20209,-14.552083 -2.4077,-4.815417 -4.92125,-10.31875 -7.9375,-14.2875 -3.0427,-4.418542 -6.05895,-9.419167 -10.31875,-12.170833 -4.07458,-3.360209 -8.33437,-7.117292 -12.17083,-10.054167 -3.83646,-3.81 -9.63083,-6.058958 -13.49375,-8.995833 -4.63021,-3.01625 -9.41916,-6.244167 -14.81666,-7.9375 -5.13292,-2.196042 -11.13896,-4.2333334 -16.40417,-6.0854169 -5.42396,-1.905 -11.27125,-4.0745833 -18.25625,-3.9687499 -6.56167,-0.9789583 -13.97,-1.6139583 -20.10833,-2.64583332 -6.50875,-0.74083335 -11.93271,-3.36020828 -17.99167,-4.49791658 -5.31813,-1.905 -13.89063,-1.349375 -20.37292,-1.8520833 -7.3025,0.3174999 -14.86958,-1.42875 -21.69583,0 -6.87917,0.1322916 -14.94896,0.1058333 -20.37292,1.8520833 -5.50333,1.7462499 -14.39333,0.8995833 -19.57916,2.9104166 -5.55625,1.66687498 -13.57313,1.66687498 -18.78542,3.7041666 -4.78896,2.4077083 -9.26042,5.9795833 -14.2875,8.2020835 -4.57729,2.592917 -8.36083,6.852708 -12.17083,10.31875 -3.54542,3.571875 -7.91104,7.276042 -11.1125,11.377083 -2.96334,4.1275 -6.24417,8.89 -9.26042,12.964583 -3.33375,3.995209 -6.27062,9.101667 -9.525,13.229167 -2.56646,4.471458 -5.63562,9.445625 -8.46667,13.758333 -2.54,4.709583 -5.31812,10.00125 -7.9375,14.816667 -1.984369,5.000624 -4.497911,10.530416 -6.879161,15.345836 -1.534583,5.66208 -4.021666,11.24479 -5.55625,16.93333 -1.984374,5.21229 -3.757083,11.45646 -4.497916,17.99167 -1.243542,5.9002 -1.561042,13.62604 -2.116667,20.37291 0.370417,6.87917 -0.343958,14.94896 0.264584,21.43125 0.132291,7.59354 1.42875,14.31396 1.852083,20.90208 1.243542,6.19125 2.883958,12.59417 4.7625,17.72709 1.719791,5.66208 4.497916,10.92729 6.085416,16.13958 2.936875,4.68313 5.397501,10.26583 8.202081,14.2875 3.36021,4.23333 6.985,8.65188 9.78958,12.7 4.18042,3.38667 8.33438,7.27604 11.90625,10.58333 4.60375,2.93688 9.73667,5.8473 14.2875,8.20209 4.47146,3.04271 9.92188,5.60916 14.02292,8.73125 5.37104,1.85208 10.58333,4.68312 16.13958,6.08541 5.31813,2.14313 11.50938,3.99521 16.93334,5.55625 1.21708,0.635 2.54992,1.1956 4.74183,1.757 2.1919,0.56141 7.42956,3.31033 12.08292,3.94864 4.65336,0.6383 8.72242,2.22737 17.32386,3.09306 8.60144,0.86569 18.6739,1.44533 32.71005,2.68888 14.32057,0.4101 26.23498,-0.79608 34.84014,-0.87009 8.60516,-0.074 14.77574,-1.63986 19.35799,-1.94908 4.58226,-0.30924 7.57618,-0.67386 9.82803,-0.96946 2.25186,-0.29559 3.76163,-0.52212 5.37559,-0.5552 z M 183.4856,290.85812 c -4.20687,-0.92605 -7.75229,-2.56646 -11.64166,-3.70417 -4.10104,-1.21708 -7.56709,-2.93687 -11.1125,-4.49792 -3.43959,-1.7727 -6.77334,-3.62479 -10.31875,-5.29166 -3.09563,-2.11667 -6.72042,-4.445 -9.78959,-6.08542 -2.96333,-2.2225 -6.08541,-4.28625 -9.26041,-6.08542 -2.80459,-2.56645 -5.42396,-5.10645 -8.73125,-7.14375 -2.06375,-2.93687 -4.68313,-5.47687 -6.87917,-8.46666 -2.40771,-2.8575 -4.89479,-6.29709 -6.61458,-9.525 -1.64042,-3.30729 -3.62479,-6.50875 -5.29167,-10.05417 -1.905,-3.22792 -2.88396,-7.43479 -4.762499,-10.58333 -0.978957,-4.33917 -2.619373,-7.85813 -3.704165,-11.90625 -0.873125,-4.41854 -2.116667,-9.12813 -2.38125,-13.49375 -0.582083,-4.68313 -1.005417,-9.41917 -1.322917,-14.2875 -0.714375,-4.47146 -0.07937,-10.26584 -0.529166,-15.08125 0.02646,-5.52979 0.608541,-10.13354 1.058333,-14.81667 -0.105833,-5.3975 1.164167,-10.10708 1.5875,-14.2875 0.873125,-4.39208 1.931458,-8.51958 3.175,-12.17083 0.687917,-4.7625 2.751665,-7.85813 3.704164,-11.90625 1.85208,-3.51896 3.09563,-7.43479 4.49792,-10.84792 1.5875,-4.021663 3.54541,-8.016872 4.7625,-11.112497 1.95791,-3.624791 3.65125,-7.090833 5.55625,-10.318749 1.77271,-3.466042 3.96875,-6.429375 5.55625,-9.789584 2.2225,-3.148541 4.23333,-6.35 6.08541,-9.260416 2.38125,-3.254375 4.78896,-6.799792 6.61459,-9.525 2.16958,-3.175 4.73604,-5.794375 6.61458,-8.995833 2.56646,-2.69875 4.49792,-5.926667 7.14375,-8.202083 2.83104,-2.592917 5.42396,-5.185834 7.9375,-7.672917 2.59292,-2.831042 6.21771,-5.159375 8.46667,-7.408333 3.41312,-1.957917 6.48229,-4.074584 9.78958,-5.55625 3.22792,-2.328334 7.43479,-3.2808344 10.58333,-5.0270839 4.2598,-1.190625 9.04875,-1.5875 13.49375,-1.8520833 4.81542,-0.8995833 9.63084,-2.0372916 13.49375,-2.6458333 4.33917,-1.0847917 8.49313,-2.0902083 13.49375,-1.8520833 5.715,0.1322917 9.73667,-1.03187502 15.08125,-0.52916672 5.29167,-0.052917 10.84792,-0.4233333 15.08125,0.52916672 5.92667,-0.68791672 10.95375,0.2116667 15.08125,0.79375 4.445,0.7408333 8.62542,1.74625 12.43542,3.1749999 3.75708,1.349375 8.49312,1.7991667 12.7,2.9104167 5.13292,-0.1058334 9.49854,0.6879168 14.2875,1.0583328 4.81542,0.449792 10.02771,1.1906254 13.49375,2.6458344 3.70417,1.27 7.75229,2.38125 11.37708,3.96875 3.94229,1.190625 8.17563,2.143125 11.37709,4.233333 4.23333,0.820208 7.03791,3.175 10.31875,5.291667 3.14854,1.878541 6.77333,4.206875 9.78958,6.085416 3.83646,1.164167 5.60916,4.577292 8.99583,6.35 2.2225,2.963333 5.715,4.630208 7.9375,7.408333 3.04271,2.301875 5.15938,5.371042 7.14375,8.73125 2.14313,2.936875 4.47146,6.561667 5.55625,10.054167 2.27542,3.042708 3.86292,6.614583 5.82083,9.789583 2.64584,2.566458 4.02167,6.376458 5.82084,9.789583 1.48166,3.65125 3.41312,6.879167 4.7625,10.583333 2.51354,2.8575 3.78354,7.540627 5.02708,11.112497 1.19063,3.88938 2.09021,8.17563 3.43958,11.90625 1.05834,4.20688 2.64584,7.77875 3.43959,12.17084 0.66146,4.49791 1.08479,9.23395 1.5875,14.02291 v 15.875 c -0.0794,4.81542 0.55562,10.60979 -0.52917,15.08125 -0.13229,4.65667 -0.92604,9.02229 -2.38125,12.96458 -0.58208,4.39209 -2.2225,7.91105 -3.70417,11.90625 -1.40229,3.54542 -2.59291,8.30792 -3.96875,11.90625 -1.61395,3.3073 -3.30729,6.77334 -5.29166,10.05417 -1.87854,3.20146 -3.41313,6.85271 -5.29167,10.31875 -1.95792,3.04271 -3.73062,6.42938 -5.82083,9.78958 -1.64042,3.33375 -3.91584,7.01146 -5.82084,10.31875 l -7.67291,7.67292 -7.67292,7.67292 c -2.30187,2.72521 -5.76792,4.41854 -8.73125,7.14375 -3.25437,1.48166 -6.50875,4.18041 -9.78958,6.08541 -2.96333,1.77271 -5.84729,4.04813 -9.78958,5.55625 -2.83105,2.09021 -6.7998,3.25438 -10.05417,5.29167 -3.4925,1.56104 -7.19667,3.04271 -10.58333,5.02708 -3.59834,1.45521 -8.3873,2.61938 -11.90625,3.96875 -0.23482,0.043 -0.52737,0.0716 -0.97468,0.0857 -0.44732,0.014 -1.04939,0.0135 -1.90326,-0.003 -0.85386,-0.0153 -1.95952,-0.0452 -3.414,-0.0901 -1.45448,-0.0449 -3.25779,0.95359 -5.50694,0.87863 -2.24916,-0.0749 -4.94416,0.89334 -8.18205,0.78798 -3.23788,-0.10538 -7.01865,1.36147 -11.43933,1.22531 -4.42068,-0.13615 -9.48127,0.77055 -15.27881,0.60325 -5.79753,-0.16729 -12.332,0.70806 -19.70044,0.50922 -7.27741,-0.61555 -13.715,-2.23562 -19.41632,-2.74944 -5.70132,-0.5138 -10.66635,-2.03798 -14.99864,-2.46174 -4.33228,-0.42376 -8.03182,-1.33458 -11.20213,-1.68 -3.17032,-0.34538 -5.8114,-2.24202 -8.02681,-2.52076 -2.21539,-0.27874 -4.0051,-1.05624 -5.47265,-1.28 -1.46754,-0.22376 -2.61292,-1.4813 -3.53967,-1.66177 -0.92674,-0.18047 -1.63486,-0.34224 -2.22787,-0.49112 -0.593,-0.14888 -1.07091,-0.2849 -1.53724,-0.41389 z"
       sodipodi:nodetypes="ccccccccccccccccccccccccccccccccccccccccccccccccccccccssscsssczccccccccccccccccccccccccccccccccccccccccccccccccccccccccccccccccccccccccssssssscssssssscz" />
    <rect
       style="fill:#fbdc16;fill-opacity:0;stroke:#000000;stroke-width:0.264582;stroke-linecap:round;stroke-dasharray:none;stroke-opacity:0"
       id="rect31639"
       width="396.61041"
       height="395.50284"
       x="56.075962"
       y="-12.311546" />
    <path
       d="m 226.79644,95.91154 c -0.89958,-6.693962 -7.77875,-7.884587 -11.1125,-11.377087 -2.30187,-3.889375 -12.17083,-5.132917 -8.99583,-10.583334 3.36021,-4.365624 5.715,-9.392708 8.99583,-13.229166 1.82563,-4.92125 8.33438,-8.043333 6.08542,-14.2875 -6.50875,-5.582708 -9.65729,3.915833 -11.90625,7.408333 -3.175,3.783542 -5.52979,8.784167 -8.99583,12.964584 -1.19063,7.725833 -7.88459,5.371041 -12.17084,1.5875 -4.41854,-1.878542 -7.46125,-8.810625 -14.55208,-5.55625 -1.79917,6.138333 6.61458,7.884583 9.78958,11.112499 4.23334,1.693334 12.77938,5.106459 5.55625,10.583334 -2.43416,4.497916 -6.58812,7.725833 -9.78958,12.170837 -2.98979,3.12208 -9.28687,9.23395 -1.05833,11.90625 7.51416,-0.15875 7.32896,-8.3873 11.64166,-10.58334 3.88938,-3.88937 6.74688,-8.387289 9.525,-12.699997 5.45042,-2.910417 9.68375,3.677708 13.49375,6.085416 3.6248,1.587501 8.22855,10.265831 13.49375,4.497921 z"
       style="fill:#000000;stroke-width:0.264583;stroke-dasharray:none"
       id="path596" />
    <path
       d="m 329.8216,191.58868 c 1.1774,1.38906 4.12195,4.43354 6.89007,6.97099 2.76813,2.53746 5.54017,4.58639 7.67292,7.67292 2.13275,3.08653 7.3025,3.94229 8.46667,7.40833 2.61937,2.64583 2.96333,7.48771 7.40833,8.20208 5.55625,0.66146 6.42937,-6.32354 2.91042,-8.46666 -3.46605,-1.85209 -4.92125,-5.58271 -7.40834,-8.20209 -2.03729,-3.28083 -5.87137,-5.22955 -8.20208,-7.9375 -2.33072,-2.70795 -4.19309,-6.23572 -7.40833,-8.20208 -3.21525,-1.96635 -7.19069,-2.97341 -10.58334,-4.7625 -3.39264,-1.78909 -6.71968,-3.6415 -10.58333,-5.02708 -3.86365,-1.38559 -7.64644,-3.29406 -11.37708,-4.49792 -3.73065,-1.20386 -7.23142,-2.93564 -11.37709,-3.96875 -4.14567,-1.0331 -7.96396,-2.43417 -12.7,-2.91042 -4.36562,-0.76729 -9.92187,-0.39687 -15.08125,-0.26458 -4.92125,0.0265 -9.87327,1.02747 -14.02291,1.85208 -4.14965,0.82462 -8.46291,1.97032 -12.7,2.91042 -4.2371,0.94011 -7.79046,2.38073 -11.64167,3.70417 -3.85121,1.32344 -7.3655,2.97235 -11.1125,4.49791 -3.747,1.52557 -7.44962,3.45925 -10.58333,5.29167 -3.13371,1.83243 -6.42073,3.9937 -9.525,6.08542 -3.10427,2.09172 -5.84729,4.23333 -9.26042,6.08541 -2.77812,2.27542 -5.79437,4.445 -8.99583,6.61459 -2.56646,2.48708 -6.11188,4.89479 -8.46667,7.40833 -2.67229,2.35479 -4.86833,5.31813 -8.20208,7.40833 -1.77271,3.14855 -5.02709,5.08 -7.14375,8.46667 -2.59292,2.24896 -3.86292,6.13833 -6.87917,8.73125 -3.88937,3.75708 0.68792,7.85813 4.49792,7.9375 5.3975,0.0265 5.00062,-5.52979 7.40833,-7.9375 1.905,-3.62479 4.63021,-6.08542 6.61458,-8.99583 2.30188,-3.14854 5.55625,-5.08 8.20209,-7.40834 2.51354,-2.93687 5.60916,-5.79437 7.9375,-7.9375 3.51896,-1.905 5.79437,-4.78895 8.99583,-6.35 2.96333,-2.61937 5.91337,-4.53755 8.99583,-6.61458 3.08247,-2.07702 6.24415,-4.16717 9.525,-6.08542 3.28086,-1.91824 6.62613,-4.29873 10.05417,-5.82083 3.42804,-1.5221 10.47982,-3.38589 11.89534,-4.32516 1.41552,-0.93927 7.21628,-2.3557 10.87906,-3.5337 3.66278,-1.17801 7.80315,-2.88362 11.09772,-3.53371 3.29457,-0.65008 4.00884,-0.31811 8.4737,-0.69101 4.46486,-0.37291 12.94548,-2.01178 18.31378,-1.56569 5.3683,0.44609 9.44104,2.2971 13.50308,3.46369 4.06202,1.16658 7.20765,2.05841 10.87905,3.46368 3.67139,1.40527 7.32318,3.18606 11.09772,4.99437 3.77454,1.80831 10.35766,4.47997 11.53506,5.86904 z"
       style="fill:#000000;stroke-width:0.264583;stroke-dasharray:none"
       id="path619" />
    <path
       d="m 341.32792,46.049419 c -3.46604,-9.2075 -11.64166,0.132292 -15.08125,2.645834 -4.55083,3.571875 -9.04875,8.175625 -13.49375,12.170833 -2.69875,9.36625 -9.97479,2.169583 -13.75833,-1.322917 -5.02708,-3.33375 -9.525,-7.276041 -13.22917,-12.170833 -8.46666,-8.598958 -10.95375,4.947708 -3.43958,7.408333 4.31271,3.96875 9.33979,7.381875 13.75833,11.377083 9.73667,2.434167 5.715,9.2075 0,12.7 -4.94771,3.175 -8.46666,8.09625 -12.96458,12.17083 -9.10167,1.5875 -3.88938,14.419788 3.175,8.73125 3.43958,-5.50333 8.81062,-9.23396 12.7,-13.22916 5.05354,-1.95792 8.65187,-12.488336 14.55208,-7.67292 5.21229,3.30729 9.71021,7.24958 12.7,12.7 9.81604,8.20208 10.68917,-7.85813 2.91042,-8.20208 -4.28625,-4.153961 -9.31333,-7.593545 -13.49375,-11.906253 3.73062,-5.106458 8.70479,-9.233958 12.7,-12.964583 4.18042,-4.60375 10.90083,-6.297083 12.96458,-12.435417 z"
       style="fill:#000000;stroke-width:0.264583;stroke-dasharray:none"
       id="path642" />
  </g>
</svg>
